<?xml version="1.0" encoding="utf-8"?>
<!-- Generator: Adobe Illustrator 21.0.2, SVG Export Plug-In . SVG Version: 6.00 Build 0)  -->
<svg version="1.1" xmlns="http://www.w3.org/2000/svg" xmlns:xlink="http://www.w3.org/1999/xlink" x="0px" y="0px"
	 viewBox="0 0 792 612" style="enable-background:new 0 0 792 612;" xml:space="preserve">
<style type="text/css">
	.st0{display:none;}
	.st1{display:inline;fill:#FFFFFF;}
	.st2{display:inline;fill:#757575;}
	.st3{display:inline;}
	.st4{opacity:0.54;fill:#BABBBE;enable-background:new    ;}
	.st5{display:inline;fill:#B0B0B0;}
	.st6{display:inline;fill:#B0B0B1;}
	.st7{display:inline;fill:none;stroke:#B0B0B1;stroke-width:7;stroke-miterlimit:10;}
	.st8{display:inline;fill:#E8E627;}
	.st9{display:inline;fill:#F095BF;}
	.st10{display:inline;fill:none;}
	.st11{font-family:'Agenda-Regular';}
	.st12{font-size:59px;}
	.st13{font-size:43px;}
	.st14{display:inline;fill:#E8E627;stroke:#010101;stroke-width:7;stroke-miterlimit:10;}
	.st15{display:inline;fill:#EF95BF;stroke:#010101;stroke-width:7;stroke-miterlimit:10;}
	.st16{fill:#F095BF;}
	.st17{font-size:110px;}
	.st18{letter-spacing:1;}
	.st19{fill:none;stroke:#F095BF;stroke-width:3;stroke-miterlimit:10;}
	.st20{display:inline;fill:#F095BF;stroke:#FFFFFF;stroke-width:3;stroke-miterlimit:10;}
	.st21{display:inline;fill:#EEFF30;stroke:#000000;stroke-width:3;stroke-miterlimit:10;}
	.st22{display:inline;fill:#08FF4E;stroke:#000000;stroke-width:3;stroke-miterlimit:10;}
	.st23{display:inline;fill:#06FFFF;stroke:#000000;stroke-width:3;stroke-miterlimit:10;}
	.st24{display:inline;fill:#FF9933;stroke:#000000;stroke-width:3;stroke-miterlimit:10;}
	.st25{fill:none;}
	.st26{font-family:'Agenda-Semibold';}
	.st27{font-size:49px;}
</style>
<g id="Layer_1" class="st0">
	<g id="Layer_1_1_">
		
			<image style="display:inline;overflow:visible;enable-background:new    ;" width="548" height="410" xlink:href="AD77576F2EEB4EE3.jpg"  transform="matrix(2.4797 0 0 2.4828 -306.2807 -295.8212)">
		</image>
		<path class="st1" d="M156.7,293.8"/>
	</g>
	<g id="gator">
		<path class="st2" d="M379,325.9c0,0-31.7,4.4-38.2,1.6c-6.6-2.8-15.2-17.6-32.5,2.1c0,0-23.8,6.7-28.6,6.9
			c-4.8,0.2-49,14.8-56.3,12.4s-15.2-8.3-22.8,3.6s-11.2,14.7-1.9,14.6s43.6-5.6,55-0.2s31.4,6.1,35.6,4.6s37.8,2.7,42.5-1.7
			c0,0,18.9-1.5,21.9-4.5c3-3.1-15.1,15.6-16.7,15.2s-3.5-8.2-5.5-5.4c-2.1,2.8-3.7,10.7-3.7,10.7s-2.3-7.1-4-6s-3.2,8.9-3.2,8.9
			s-0.7-5.7-4.1-6.7s-6.8,12.1-6.8,12.1s-0.3-10.8-3.3-10.5s-4.1,10.8-4.9,13c0,0-4.5-11.9-6-10.1s-2.6,13.9-2.6,13.9
			s-2.8-9.3-5.5-6.9c-2.7,2.3-5.9,13.7-5.9,13.7s-3-10.3-4.8-9.6c-1.7,0.8-3.9,14-3.9,14s-2.6-11.6-4.2-9.5s-5.8,11.5-5.8,11.5
			s-36.5,20.6-41.4,18.1s-10.2-1.5-8.1,3.9c2.1,5.4,7.3,10.6,11.9,11c4.7,0.5,62.4-20.2,63.3-20.6s24.4-7.5,31.6-7.5
			s26,2.3,36.3-10.5C366.6,395.2,432,337.3,379,325.9z"/>
		<path class="st2" d="M198.6,364.8c0,0,1.2,6.7,2.4,6.3c1.2-0.4,4.9-6.3,4.9-6.3s-2.2,6.5,0,6.3s5.9-6.3,5.9-6.3s0,6.3,1,6.3
			s6.9-6.3,6.9-6.3s-0.2,7.3,0.8,6.3s7.3-7.7,7.3-7.7s-1,7.1,0,6.7s6.1-6.7,6.1-6.7s-1.8,5.3,0,5.3s5.5-5.3,5.5-5.3s0.6,3.8,1.6,3.9
			s4.7-5.7,4.7-5.7s-1,5.9,0,5.9s4.1-5.9,4.1-5.9s-0.8,5.3,0,5.9s5.5-5.9,5.5-5.9l-36.5-5.5L198.6,364.8z"/>
	</g>
	<g id="race">
		<polygon class="st1" points="116.7,445 106.5,434.1 123.4,437.2 114.9,425.7 132.4,425.7 119.4,411.9 139,414.9 130.6,400.4 
			149.8,403.4 139.6,389.6 153.5,389.6 148.6,377.6 163.7,381.2 155.9,369.1 172.7,372.1 158.3,357.1 176.2,357.1 169.1,348.1 
			186,355.9 179.3,338.4 186,343.5 186,331.2 195,337.2 191.4,324 204,330 129.4,439 		"/>
		<polygon class="st1" points="54.1,390.8 63.1,400.4 63.1,388.4 71.6,394.4 71.6,380 83,392.6 79.4,374.5 94.5,384.5 90.2,357.1 
			102.9,381.8 106.5,360.1 114.9,366.1 114.9,354.1 128.2,361.3 128.2,346.9 137.8,352.9 137.8,343.2 149.8,348.7 149.8,337.8 
			161.3,344.4 161.3,328.8 169.7,336 167.3,324 179.9,327.6 170.9,316.8 102.9,346.3 54.1,377.6 		"/>
		
			<image style="display:inline;overflow:visible;enable-background:new    ;" width="606" height="556" xlink:href="AD77576F2EEB4EE1.png"  transform="matrix(0.4983 0 0 0.4982 554.2401 246.1253)">
		</image>
		<g class="st3">
			<path class="st4" d="M463.6,340.3c0,0,11.3,23.6,11.3,28l11.3-24.5c-3.7-0.2-15-19.7-15-19.7C471.2,325.3,463.6,341,463.6,340.3z
				"/>
			<path class="st4" d="M466.1,382.7c-2.9-2.9-13.1-19.2-13.1-19.2c0.2,1.2-10.9,21.1-10.9,21.1l12,20.6
				C454.1,405.1,463.1,383.4,466.1,382.7z"/>
			<path class="st4" d="M463.6,340.3c0-0.7-15.7-17.8-15.7-17.8l-8.7,19.2c0,0,13.7,20.6,13.8,21.7L463.6,340.3z"/>
			<path class="st4" d="M500.8,363.1L492,382l17.8,10.2l9-18.7C516.8,373.4,500.8,363.1,500.8,363.1z"/>
			<path class="st4" d="M447.8,322.5l9.7-18.7c0-2.1-18.4-13.8-18.4-13.8l-8.4,17.3C433.9,308,447.8,322.5,447.8,322.5z"/>
			<path class="st4" d="M485.6,311.5c-30.5-54.5-56.7-52.9-56.7-52.9l-45.2,102.5c19.1,3.8,35.4,28.3,48.9,53.9s66.6,43.6,66.6,43.6
				l47.9-99.1C521.6,364.9,485.6,317,485.6,311.5z M524.7,397.5c-1.2,0-14.8-5.3-14.8-5.3l-9,18.7l14.8,6.2l-9.3,19.2
				c0,0-14.8-5.3-14.8-8.8l-10.2,20.6l-17.4-9.5c0,0,7.4-17.5,9.1-18.8c-6.1-0.7-18.9-14.8-18.9-14.8l-10.4,18.5
				c-3-0.9-12.5-18.5-12.5-18.5l10.9-20.6c0,0-13.7-16.2-14.1-19.2l-9.7,19.2c-1.2-3-14.8-17.1-14.8-17.1l7.4-17.1
				c3.7-0.9,17.1,15,17.1,15l11.2-23.6l-17.9-13c0,0-9,19.2-9.7,19.2s-14.1-7.1-15-7.6S406,321,406,321s14.1,4.9,15.5,7.6l9.4-21.5
				l-16.2-8.7l7.5-16.4l17.2,7.7l9.7-18.1c3.8,1.2,18,14.6,18,14.6s-8.1,16.9-9.1,17.5c2.9,3.3,13.5,19.1,13.5,20.2l9.5-16.2
				c0,3.5,13.4,21.5,13.4,21.5l-7.9,14.3c0,0,13.7,18.3,14.6,19.3c0,0,6.2-17.5,7.9-16.1c1.6,1.4,18.7,11.6,18.7,11.6
				s-6.5,14.8-8.6,14.8l14.3,6C533.2,379.4,525.8,397.5,524.7,397.5z"/>
			<path class="st4" d="M473.3,419.9c0.7,1.9,18.3,7.6,18.3,7.6c0-3.5,9.3-16.7,9.3-16.7l-21.1-9.9L473.3,419.9z"/>
			<path class="st4" d="M474.9,368.3c0,0-6.9,14.1-8.1,14.8c1.9,4.2,13,17.8,13,17.8s9.7-18,12.3-19
				C492,382,474.7,372.9,474.9,368.3z"/>
		</g>
	</g>
	<g id="titanic">
		
			<image style="display:inline;overflow:visible;enable-background:new    ;" width="383" height="371" xlink:href="AD77576F2EEB4EE7.png"  transform="matrix(0.8865 0 0 0.8866 221.2135 168.1999)">
		</image>
		<path class="st5" d="M404.5,237.5H396c0,0-4.8-51.5,4.3-52c9.1-0.5,13.4,0,13.4,0v268.8v37.8h-30.2c0,0-11.3-31.8-16.7-31.3
			c-5.4,0.5-5.9,2.2-9.7,2.2s-28.6,1.6-28.6-3.8s-4.9-14,0-14s30.2-1.6,30.2-1.6s5.9-4.9,3.2-7.6s-17.8-22.1-20.5-43.2
			c0,0-4.9-11.9-9.2-11.9s5.4-36.9,22.7-42.2c0,0,21.1,14.2,19.4,36.8c0,0-5.4,2.7-4.3,10.3c1.1,7.6,11.3,52.9,31.3,52.4
			L404.5,237.5z"/>
		<path class="st5" d="M422.8,237.5h8.5c0,0,4.8-51.5-4.3-52c-9.1-0.5-13.4,0-13.4,0v268.8v37.8h30.2c0,0,11.3-31.8,16.7-31.3
			s5.9,2.2,9.7,2.2s28.6,1.6,28.6-3.8s4.9-14,0-14s-30.2-1.6-30.2-1.6s-5.9-4.9-3.2-7.6c2.7-2.7,17.8-22.1,20.5-43.2
			c0,0,4.9-11.9,9.2-11.9c4.3,0-5.4-36.9-22.7-42.2c0,0-21.1,14.2-19.4,36.8c0,0,5.4,2.7,4.3,10.3c-1.1,7.6-11.3,52.9-31.3,52.4
			L422.8,237.5z"/>
	</g>
	<g id="wunder">
		
			<image style="display:inline;overflow:visible;enable-background:new    ;" width="439" height="789" xlink:href="AD77576F2EEB4EE0.png"  transform="matrix(0.6245 0 0 0.6251 306 45)">
		</image>
		<path class="st5" d="M453.5,127.9l20.7-27.5l53.4,16.6c0,0-66.8,233.1-66.3,251.7s46.1,31.1,58.5,30.6c12.4-0.5-21.2,3.1-21.2,3.1
			s24.3,7.3,33.7,6.7c9.3-0.5-16.6,3.1-16.6,3.1s26.4,0.5,30,9.3c0-9.5-31.6-0.1-35.9,0c-4.3,0.1,11.2,13.6,11.2,13.6
			s-45-19.5-48-29.1s9.3,16.5,11.2,17.5s-26.8-29.1-26.8-35.4s14.9,59.5,23.8,64.5s-13.9-6.3-13.9-6.3s22.8,28.4,27.4,29.4
			s-14.2,0-14.2,0s28.8,25.1,35.1,24.8c6.3-0.3-27.8-2.3-27.8-2.3s-0.7,11.9-4.3,12.9c0,0-6.6-31.7-11.2-36s0.3,19.8,0.3,19.8
			s-16.5-49.9-17.5-56.6c-1-6.6,0.8,19.2-1.8,21.5c-2.5,2.3-6.2-39.4-6.2-39.4s-14.2,45.6-15.5,53.2s-4.3-19.8-4.3-19.8
			s-13.9,41.3-13.9,48.9s-2-30.1-2-30.1s-2.5,32.4-15.6,33.7c0,0,1.4-20.2,1.4-21.5s-14.6,7.6-14.9,13.9s9.3-34.7,21.2-40.7
			s-21.2-2-21.2-2s25.1-8.6,34.1-25.8c0,0-10.8,3-20.6,4.6c-9.8,1.7,29.5-17.2,36.1-37c0,0-32.1,9.5-36.1,13.5
			c-4,3.9,6.2-9.2,6.2-9.2s-21,6.9-24.9,12.1s6.2-12.4,6.2-12.4s-31.4,12.8-33.1,16c-1.6,3.3,18.3-19,18.3-19s-28.8,1.6-31.4-4.3
			c0,0,26.9-4.3,32.1-5.6s-13.8-12.4-13.8-12.4s30.5,9.8,42.9,8.5c0,0-9.5-8.8-9.8-11.5c-0.3-2.6,37.7,10.2,44.2,8.2
			c6.6-2,55.9-227.4,49.6-238L453.5,127.9z"/>
	</g>
	<g id="flamingo">
		
			<image style="display:inline;overflow:visible;enable-background:new    ;" width="637" height="789" xlink:href="AD77576F2EEB4EE3.png"  transform="matrix(0.5531 0 0 0.5532 149.2767 68.1009)">
		</image>
		<path class="st6" d="M231.2,89c0,0-9-1.3-14.2,21.1c0,0-15.1,11.2-15.9,21.9c-0.9,10.8,6.9,33.6,9.9,33.6s7.3-24.5,7.3-27.5
			s7.7-13.3,12.9-13.3s12-3.9,15.1-6.9c3-3,9-5.2,11.6,0.4c2.6,5.6,13.3,27.1-16.3,55.9s-43,61.5-33.6,86.9s50.3,37.4,67.1,36.1
			s21.9,3.4,26.7,4.7c4.7,1.3,12.1,9,23.7,7.3s28.8-6.9,30.1-11.2s9.9-6.5,16.8-6.5s27.1-8.2,32.3-7.3c5.2,0.9,40.4,18.1,42.6,18.1
			s12.5,4.3,7.3-1.3c-5.2-5.6-49.5-50.8-56.4-51.2s-21.5-38.3-72.7-40.4c0,0-26.7,0.4-35.3,3.9c-8.6,3.4-49,0-44.3-11.2
			s25-31,25.8-36.6c0.9-5.6,11.2-26.2,3.4-47.7C267.3,96.3,245.8,81.7,231.2,89z"/>
		<line class="st7" x1="325.4" y1="309.2" x2="325.4" y2="486.5"/>
		<polyline class="st7" points="325.4,302.5 261.1,370 333.3,412.8 		"/>
	</g>
	<g id="home">
		<polygon class="st6" points="219.2,287.6 390.1,96.2 390.1,341.4 331.3,341.4 331.3,477.5 219.2,477.5 		"/>
		<polygon class="st6" points="561,287.6 390.1,96.2 390.1,341.4 448.9,341.4 448.9,477.5 561,477.5 		"/>
	</g>
	<g id="Layer_8">
		
			<image style="display:inline;overflow:visible;enable-background:new    ;" width="722" height="612" xlink:href="AD77576F2EEB4EEF.png"  transform="matrix(0.8113 0 0 0.8113 69.8094 80.0585)">
		</image>
		<path class="st6" d="M107.4,188.6c0,0,6.9-31.7,11.6-33.2c0,0,3.7-34.3,25.3-35.9s28.5-8.4,52.2,10.6s34.8,36.4,36.9,50.7
			c2.1,14.2,40.1,48,40.1,48l29.6,20.6c0,0,26.4,8.4,30.1,10.6c3.7,2.1,31.1,15.3,35.4,15.3c4.2,0,25.3,3.7,29,3.2
			s-5.8,11.6-9.8,11.6s79.4,68.6,87.9,75.5c8.4,6.9,49.6,27.4,55.9,27.4c6.3,0,49.6,17.9,52.2,21.6s0,11.1,0,11.1s17.4,3.7,23.2,5.8
			c5.8,2.1,14.8,10.6,13.2,15.8c-1.6,5.3-11.1,27.4-25.9,26.4s-86.5-24.3-98.2-24.3c-11.6,0-81.3-1.1-88.7-2.1
			c0,0-62.3,22.2-69.1,24.3c-6.9,2.1-21.1,25.3-19,28.5s21.6,1.6,21.6,5.8c0,4.2-1.1,14.2-10,12.1s-17.9-1-25.3,0.3
			s-23.7-0.2-30.1,0s-19,5.6-20.1,0.5c-1.1-5-10-0.3-10-5.6s29.6-11.6,36.9-11.6s22.2-1.6,22.2-1.6s9.5-32.2,0.5-33.8
			s-71.8-24.3-83.9-34.8c-12.1-10.6-40.6-34.3-41.7-39c0,0-28-29-28.5-39c-6.5-9.5-13.5-49.4,0-69.1c6.3-7.9,5.8-73.9,5.8-80.7
			c0-6.9-2.1-16.4-5.3-16.4s-10,0.4-14.8-5.3C131.3,178.5,107.4,188.6,107.4,188.6z"/>
	</g>
	<g id="amurica">
		<path class="st8" d="M115.6,117.5c0,0,6.6,9.5,13.9,8.5s-0.2-11.9,3.9-12c4.1-0.1,139.3,29.2,149.4,28.6
			c10.1-0.6,130.3,12.4,142.6,4.8c12.3-7.6,13.5,10.8,22.7,10.6s12.9-0.2,22.1,1.9s23.4-0.9,28.8-9.2c5.4-8.4,29.3-5.4,32.8,8.9
			c0,0,12.2-11.1,22.9,20.4c0,0,21.3,7,32.2,2.6c11-4.3,16.2,8.9,17.7,10.7c1.4,1.8,7.4,2.2,5.7,7.7s-2.6,8.3-6.7,8.4
			c-4.1,0.1-16.1-2.9-15.1,3c1,6,3.9,15.1,2.6,17.9s12.5,7.1,14.7-0.3c2.2-7.4,6.1-17.6,16.6-21.4s27-6.5,36.3-25
			c0,0,21.4-12.8,30.6-13.4c9.2-0.6,15.8-14.1,15.3-16.4c-0.5-2.3-6.8-21.9-0.4-24.3c6.4-2.4,15-9.9,21.5-3.1
			c6.6,6.8,10.5,22.8,10.5,22.8s20.3,6.1,13.6,15.4c-6.7,9.3-10.4,9.8-10.4,9.8s-27.7,18-18.1,40.3c0,0,13.7-3.5,11.2,8.5
			s-39.3,14.5-41.3,30.1c0,0,3.1,22-5,28.6c0,0-1.9,22.1-11.5,23.6s7.1,10,8.5,11.3s8.5,11.3,4.1,22s-22.4,30.3-26.1,33.1
			c-3.6,2.8-16.5,29.7-26.1,30.3c-9.6,0.6-10.9,35.6,7.4,54.6s17.7,39.7,17.8,46.1s-4.2,24-14.9,12.7c-10.8-11.3-11.6-3.5-14.9-11.7
			c-3.4-8.2-7.4-2.6-17.4-24s-15.6-23.2-20.8-32.3c0,0-12.5,11.3-15.7,7.2c-3.1-4.1-6.9-7.2-11.4-7.2c-4.6,0.1-9.3-6.3-16.6-1.5
			c-7.3,4.7-22,3.6-21.9,7.7s7.2,16-2.4,17.5c-9.6,1.5-17,0.3-20.7,0.8s-12-5.3-17.1-5.7s-13.7,2.5-18.9-0.6
			c-5.1-3.1-19.7,2.2-21.1,3.6s-31.4,16.2-35.8,26.4s1.3,20.7,0.9,24.8c-0.4,4.1-7.6,13.3-24.3,3.3c-16.7-10-16-22.8-17-26.5
			s-18.5-33.7-22.2-35.5s-9.1,2.9-13.8,1.6c0,0-2.1,10.6-7.6,10.2s-20.8-5.6-21.8-9.7s-4.4-15.1-8.1-18.2c-3.7-3.2-9.9-12.2-15-15.8
			c-5.1-3.6-16.2-3.8-20.3-2.4c-4.1,1.5-30.7,4.2-43.7-0.6s-53.4-28.9-55.7-31.2c-2.3-2.3-17.5-0.1-21.6-2.8s0.7-12.4-5.8-16
			s-25.2-23.9-31.2-23.8s-1.1-9.6-4.4-15.5s-8.1-14.1-8.2-21.5s-1.3-19.3-3.2-25.2c-1.9-5.9-9.4-9.5-7.7-19.2
			c1.7-9.7-2.3-17.4-0.7-24.3c1.5-6.9,8.2-23.1,8-29.1s2.9-15.2,5.6-20.8s18.6-64.7,18.6-64.7S103.8,121.8,115.6,117.5z"/>
		<path class="st9" d="M480.6,374.2c0,0,2.3-4.7,0-8.9c5.1-3.3,5.1-7,5.1-9.8s1.9-7,1.9-7s17.3,0.9,18.7,0c1.4-0.9,1.4-0.9,1.4-0.9
			l2.8-2.3h15l8.4-2.8c0,0,42.1-2.3,45.4-3.3c3.3-0.9,5.6,0,5.6,0s-0.9,8-5.1,9.4c-4.2,1.4-0.5-0.9-4.2,1.4s-4.7,5.7-6.5,6.6
			c-1.9,0.9-7.5,0.9-8.4,4.2s-4.2,2.8-4.2,5.1s0,2.3,0,2.3S486.2,375.6,480.6,374.2z"/>
	</g>
	<g id="Layer_12">
		<path class="st8" d="M96.7,102.2c0,0,6.6,9.5,13.9,8.5s-0.2-11.9,3.9-12s139.3,29.2,149.4,28.6c10.1-0.6,130.3,12.4,142.6,4.8
			c12.3-7.6,13.5,10.8,22.7,10.6s12.9-0.2,22.1,1.9s23.4-0.9,28.8-9.2c5.4-8.4,29.3-5.4,32.8,8.9c0,0,12.2-11.1,22.9,20.4
			c0,0,21.3,7,32.2,2.6c11-4.3,16.2,8.9,17.7,10.7c1.4,1.8,7.4,2.2,5.7,7.7s-2.6,8.3-6.7,8.4c-4.1,0.1-16.1-2.9-15.1,3
			c1,6,3.9,15.1,2.6,17.9c-1.3,2.8,12.5,7.1,14.7-0.3c2.2-7.4,6.1-17.6,16.6-21.4c10.5-3.9,27-6.5,36.3-25c0,0,21.4-12.8,30.6-13.4
			s15.8-14.1,15.3-16.4s-6.8-21.9-0.4-24.3c6.4-2.4,15-9.9,21.5-3.1c6.6,6.8,10.5,22.8,10.5,22.8s20.3,6.1,13.6,15.4
			c-6.7,9.3-10.4,9.8-10.4,9.8s-27.7,18-18.1,40.3c0,0,13.7-3.5,11.2,8.5s-39.3,14.5-41.3,30.1c0,0,3.1,22-5,28.6
			c0,0-1.9,22.1-11.5,23.6s7.1,10,8.5,11.3c1.4,1.4,8.5,11.3,4.1,22s-22.4,30.3-26.1,33.1c-3.6,2.8-16.5,29.7-26.1,30.3
			s-10.9,35.6,7.4,54.6c18.3,19,17.7,39.7,17.8,46.1s-4.2,24-14.9,12.7c-10.8-11.3-11.6-3.5-14.9-11.7c-3.4-8.2-7.4-2.6-17.4-24
			s-15.6-23.2-20.8-32.3c0,0-12.5,11.3-15.7,7.2c-3.1-4.1-6.9-7.2-11.4-7.2c-4.6,0.1-9.3-6.3-16.6-1.5c-7.3,4.7-22,3.6-21.9,7.7
			s7.2,16-2.4,17.5c-9.6,1.5-17,0.3-20.7,0.8s-12-5.3-17.1-5.7s-13.7,2.5-18.9-0.6c-5.1-3.1-19.7,2.2-21.1,3.6s-31.4,16.2-35.8,26.4
			c-4.4,10.2,1.3,20.7,0.9,24.8c-0.4,4.1-7.6,13.3-24.3,3.3c-16.7-10-16-22.8-17-26.5s-18.5-33.7-22.2-35.5s-9.1,2.9-13.8,1.6
			c0,0-2.1,10.6-7.6,10.2s-20.8-5.6-21.8-9.7s-4.4-15.1-8.1-18.2c-3.7-3.2-9.9-12.2-15-15.8c-5.1-3.6-16.2-3.8-20.3-2.4
			c-4.1,1.5-30.7,4.2-43.7-0.6c-13-4.8-53.4-28.9-55.7-31.2c-2.3-2.3-17.5-0.1-21.6-2.8c-4.2-2.7,0.7-12.4-5.8-16
			s-25.2-23.9-31.2-23.8s-1.1-9.6-4.4-15.5s-8.1-14.1-8.2-21.5s-1.3-19.3-3.2-25.2s-9.4-9.5-7.7-19.2s-2.3-17.4-0.7-24.3
			c1.5-6.9,8.2-23.1,8-29.1s2.9-15.2,5.6-20.8s18.6-64.7,18.6-64.7S84.9,106.6,96.7,102.2z"/>
		<rect x="305.6" y="274.4" class="st10" width="180.8" height="78.3"/>
		<text transform="matrix(1 0 0 1 333.6968 316.4363)" class="st3 st11 st12">Enter</text>
	</g>
	<g id="Layer_12_copy">
		<path class="st8" d="M96.7,102.2c0,0,6.6,9.5,13.9,8.5s-0.2-11.9,3.9-12s139.3,29.2,149.4,28.6c10.1-0.6,130.3,12.4,142.6,4.8
			c12.3-7.6,13.5,10.8,22.7,10.6s12.9-0.2,22.1,1.9s23.4-0.9,28.8-9.2c5.4-8.4,29.3-5.4,32.8,8.9c0,0,12.2-11.1,22.9,20.4
			c0,0,21.3,7,32.2,2.6c11-4.3,16.2,8.9,17.7,10.7c1.4,1.8,7.4,2.2,5.7,7.7s-2.6,8.3-6.7,8.4c-4.1,0.1-16.1-2.9-15.1,3
			c1,6,3.9,15.1,2.6,17.9c-1.3,2.8,12.5,7.1,14.7-0.3c2.2-7.4,6.1-17.6,16.6-21.4c10.5-3.9,27-6.5,36.3-25c0,0,21.4-12.8,30.6-13.4
			s15.8-14.1,15.3-16.4s-6.8-21.9-0.4-24.3c6.4-2.4,15-9.9,21.5-3.1c6.6,6.8,10.5,22.8,10.5,22.8s20.3,6.1,13.6,15.4
			c-6.7,9.3-10.4,9.8-10.4,9.8s-27.7,18-18.1,40.3c0,0,13.7-3.5,11.2,8.5s-39.3,14.5-41.3,30.1c0,0,3.1,22-5,28.6
			c0,0-1.9,22.1-11.5,23.6s7.1,10,8.5,11.3c1.4,1.4,8.5,11.3,4.1,22s-22.4,30.3-26.1,33.1c-3.6,2.8-16.5,29.7-26.1,30.3
			s-10.9,35.6,7.4,54.6c18.3,19,17.7,39.7,17.8,46.1s-4.2,24-14.9,12.7c-10.8-11.3-11.6-3.5-14.9-11.7c-3.4-8.2-7.4-2.6-17.4-24
			s-15.6-23.2-20.8-32.3c0,0-12.5,11.3-15.7,7.2c-3.1-4.1-6.9-7.2-11.4-7.2c-4.6,0.1-9.3-6.3-16.6-1.5c-7.3,4.7-22,3.6-21.9,7.7
			s7.2,16-2.4,17.5c-9.6,1.5-17,0.3-20.7,0.8s-12-5.3-17.1-5.7s-13.7,2.5-18.9-0.6c-5.1-3.1-19.7,2.2-21.1,3.6s-31.4,16.2-35.8,26.4
			c-4.4,10.2,1.3,20.7,0.9,24.8c-0.4,4.1-7.6,13.3-24.3,3.3c-16.7-10-16-22.8-17-26.5s-18.5-33.7-22.2-35.5s-9.1,2.9-13.8,1.6
			c0,0-2.1,10.6-7.6,10.2s-20.8-5.6-21.8-9.7s-4.4-15.1-8.1-18.2c-3.7-3.2-9.9-12.2-15-15.8c-5.1-3.6-16.2-3.8-20.3-2.4
			c-4.1,1.5-30.7,4.2-43.7-0.6c-13-4.8-53.4-28.9-55.7-31.2c-2.3-2.3-17.5-0.1-21.6-2.8c-4.2-2.7,0.7-12.4-5.8-16
			s-25.2-23.9-31.2-23.8s-1.1-9.6-4.4-15.5s-8.1-14.1-8.2-21.5s-1.3-19.3-3.2-25.2s-9.4-9.5-7.7-19.2s-2.3-17.4-0.7-24.3
			c1.5-6.9,8.2-23.1,8-29.1s2.9-15.2,5.6-20.8s18.6-64.7,18.6-64.7S84.9,106.6,96.7,102.2z"/>
		<rect x="119.7" y="279.8" class="st10" width="552.6" height="39.6"/>
		<text transform="matrix(1 0 0 1 323.933 310.4279)" class="st3 st11 st13">Zoom in  </text>
	</g>
	<g id="yellow">
		<path class="st8" d="M96.7,102.2c0,0,6.6,9.5,13.9,8.5s-0.2-11.9,3.9-12s139.3,29.2,149.4,28.6c10.1-0.6,130.3,12.4,142.6,4.8
			c12.3-7.6,13.5,10.8,22.7,10.6s12.9-0.2,22.1,1.9s23.4-0.9,28.8-9.2c5.4-8.4,29.3-5.4,32.8,8.9c0,0,12.2-11.1,22.9,20.4
			c0,0,21.3,7,32.2,2.6c11-4.3,16.2,8.9,17.7,10.7c1.4,1.8,7.4,2.2,5.7,7.7s-2.6,8.3-6.7,8.4c-4.1,0.1-16.1-2.9-15.1,3
			c1,6,3.9,15.1,2.6,17.9c-1.3,2.8,12.5,7.1,14.7-0.3c2.2-7.4,6.1-17.6,16.6-21.4c10.5-3.9,27-6.5,36.3-25c0,0,21.4-12.8,30.6-13.4
			s15.8-14.1,15.3-16.4s-6.8-21.9-0.4-24.3c6.4-2.4,15-9.9,21.5-3.1c6.6,6.8,10.5,22.8,10.5,22.8s20.3,6.1,13.6,15.4
			c-6.7,9.3-10.4,9.8-10.4,9.8s-27.7,18-18.1,40.3c0,0,13.7-3.5,11.2,8.5s-39.3,14.5-41.3,30.1c0,0,3.1,22-5,28.6
			c0,0-1.9,22.1-11.5,23.6s7.1,10,8.5,11.3c1.4,1.4,8.5,11.3,4.1,22s-22.4,30.3-26.1,33.1c-3.6,2.8-16.5,29.7-26.1,30.3
			s-10.9,35.6,7.4,54.6c18.3,19,17.7,39.7,17.8,46.1s-4.2,24-14.9,12.7c-10.8-11.3-11.6-3.5-14.9-11.7c-3.4-8.2-7.4-2.6-17.4-24
			s-15.6-23.2-20.8-32.3c0,0-12.5,11.3-15.7,7.2c-3.1-4.1-6.9-7.2-11.4-7.2c-4.6,0.1-9.3-6.3-16.6-1.5c-7.3,4.7-22,3.6-21.9,7.7
			s7.2,16-2.4,17.5c-9.6,1.5-17,0.3-20.7,0.8s-12-5.3-17.1-5.7s-13.7,2.5-18.9-0.6c-5.1-3.1-19.7,2.2-21.1,3.6s-31.4,16.2-35.8,26.4
			c-4.4,10.2,1.3,20.7,0.9,24.8c-0.4,4.1-7.6,13.3-24.3,3.3c-16.7-10-16-22.8-17-26.5s-18.5-33.7-22.2-35.5s-9.1,2.9-13.8,1.6
			c0,0-2.1,10.6-7.6,10.2s-20.8-5.6-21.8-9.7s-4.4-15.1-8.1-18.2c-3.7-3.2-9.9-12.2-15-15.8c-5.1-3.6-16.2-3.8-20.3-2.4
			c-4.1,1.5-30.7,4.2-43.7-0.6c-13-4.8-53.4-28.9-55.7-31.2c-2.3-2.3-17.5-0.1-21.6-2.8c-4.2-2.7,0.7-12.4-5.8-16
			s-25.2-23.9-31.2-23.8s-1.1-9.6-4.4-15.5s-8.1-14.1-8.2-21.5s-1.3-19.3-3.2-25.2s-9.4-9.5-7.7-19.2s-2.3-17.4-0.7-24.3
			c1.5-6.9,8.2-23.1,8-29.1s2.9-15.2,5.6-20.8s18.6-64.7,18.6-64.7S84.9,106.6,96.7,102.2z"/>
	</g>
	<g id="pinkmurica">
		<path class="st14" d="M115.6,117.5c0,0,6.6,9.5,13.9,8.5s-0.2-11.9,3.9-12c4.1-0.1,139.3,29.2,149.4,28.6
			c10.1-0.6,130.3,12.4,142.6,4.8c12.3-7.6,13.5,10.8,22.7,10.6s12.9-0.2,22.1,1.9s23.4-0.9,28.8-9.2c5.4-8.4,29.3-5.4,32.8,8.9
			c0,0,12.2-11.1,22.9,20.4c0,0,21.3,7,32.2,2.6c11-4.3,16.2,8.9,17.7,10.7c1.4,1.8,7.4,2.2,5.7,7.7s-2.6,8.3-6.7,8.4
			c-4.1,0.1-16.1-2.9-15.1,3c1,6,3.9,15.1,2.6,17.9s12.5,7.1,14.7-0.3c2.2-7.4,6.1-17.6,16.6-21.4s27-6.5,36.3-25
			c0,0,21.4-12.8,30.6-13.4c9.2-0.6,15.8-14.1,15.3-16.4c-0.5-2.3-6.8-21.9-0.4-24.3c6.4-2.4,15-9.9,21.5-3.1
			c6.6,6.8,10.5,22.8,10.5,22.8s20.3,6.1,13.6,15.4c-6.7,9.3-10.4,9.8-10.4,9.8s-27.7,18-18.1,40.3c0,0,13.7-3.5,11.2,8.5
			s-39.3,14.5-41.3,30.1c0,0,3.1,22-5,28.6c0,0-1.9,22.1-11.5,23.6s7.1,10,8.5,11.3s8.5,11.3,4.1,22s-22.4,30.3-26.1,33.1
			c-3.6,2.8-16.5,29.7-26.1,30.3c-9.6,0.6-10.9,35.6,7.4,54.6s17.7,39.7,17.8,46.1s-4.2,24-14.9,12.7c-10.8-11.3-11.6-3.5-14.9-11.7
			c-3.4-8.2-7.4-2.6-17.4-24s-15.6-23.2-20.8-32.3c0,0-12.5,11.3-15.7,7.2c-3.1-4.1-6.9-7.2-11.4-7.2c-4.6,0.1-9.3-6.3-16.6-1.5
			c-7.3,4.7-22,3.6-21.9,7.7s7.2,16-2.4,17.5c-9.6,1.5-17,0.3-20.7,0.8s-12-5.3-17.1-5.7s-13.7,2.5-18.9-0.6
			c-5.1-3.1-19.7,2.2-21.1,3.6s-31.4,16.2-35.8,26.4s1.3,20.7,0.9,24.8c-0.4,4.1-7.6,13.3-24.3,3.3c-16.7-10-16-22.8-17-26.5
			s-18.5-33.7-22.2-35.5s-9.1,2.9-13.8,1.6c0,0-2.1,10.6-7.6,10.2s-20.8-5.6-21.8-9.7s-4.4-15.1-8.1-18.2c-3.7-3.2-9.9-12.2-15-15.8
			c-5.1-3.6-16.2-3.8-20.3-2.4c-4.1,1.5-30.7,4.2-43.7-0.6s-53.4-28.9-55.7-31.2c-2.3-2.3-17.5-0.1-21.6-2.8s0.7-12.4-5.8-16
			s-25.2-23.9-31.2-23.8s-1.1-9.6-4.4-15.5s-8.1-14.1-8.2-21.5s-1.3-19.3-3.2-25.2c-1.9-5.9-9.4-9.5-7.7-19.2
			c1.7-9.7-2.3-17.4-0.7-24.3c1.5-6.9,8.2-23.1,8-29.1s2.9-15.2,5.6-20.8s18.6-64.7,18.6-64.7S103.8,121.8,115.6,117.5z"/>
		<path class="st15" d="M105.6,111.3c0,0,6.6,9.5,13.9,8.5s-0.2-11.9,3.9-12s139.3,29.2,149.4,28.6c10.1-0.6,130.3,12.4,142.6,4.8
			c12.3-7.6,13.5,10.8,22.7,10.6s12.9-0.2,22.1,1.9s23.4-0.9,28.8-9.2c5.4-8.4,29.3-5.4,32.8,8.9c0,0,12.2-11.1,22.9,20.4
			c0,0,21.3,7,32.2,2.6c11-4.3,16.2,8.9,17.7,10.7c1.4,1.8,7.4,2.2,5.7,7.7s-2.6,8.3-6.7,8.4c-4.1,0.1-16.1-2.9-15.1,3
			c1,6,3.9,15.1,2.6,17.9s12.5,7.1,14.7-0.3c2.2-7.4,6.1-17.6,16.6-21.4s27-6.5,36.3-25c0,0,21.4-12.8,30.6-13.4
			c9.2-0.6,15.8-14.1,15.3-16.4c-0.5-2.3-6.8-21.9-0.4-24.3c6.4-2.4,15-9.9,21.5-3.1c6.6,6.8,10.5,22.8,10.5,22.8
			s20.3,6.1,13.6,15.4c-6.7,9.3-10.4,9.8-10.4,9.8s-27.7,18-18.1,40.3c0,0,13.7-3.5,11.2,8.5s-39.3,14.5-41.3,30.1
			c0,0,3.1,22-5,28.6c0,0-1.9,22.1-11.5,23.6s7.1,10,8.5,11.3s8.5,11.3,4.1,22s-22.4,30.3-26.1,33.1c-3.6,2.8-16.5,29.7-26.1,30.3
			c-9.6,0.6-10.9,35.6,7.4,54.6s17.7,39.7,17.8,46.1s-4.2,24-14.9,12.7c-10.8-11.3-11.6-3.5-14.9-11.7c-3.4-8.2-7.4-2.6-17.4-24
			s-15.6-23.2-20.8-32.3c0,0-12.5,11.3-15.7,7.2c-3.1-4.1-6.9-7.2-11.4-7.2c-4.6,0.1-9.3-6.3-16.6-1.5c-7.3,4.7-22,3.6-21.9,7.7
			s7.2,16-2.4,17.5c-9.6,1.5-17,0.3-20.7,0.8s-12-5.3-17.1-5.7s-13.7,2.5-18.9-0.6c-5.1-3.1-19.7,2.2-21.1,3.6s-31.4,16.2-35.8,26.4
			c-4.4,10.2,1.3,20.7,0.9,24.8c-0.4,4.1-7.6,13.3-24.3,3.3c-16.7-10-16-22.8-17-26.5s-18.5-33.7-22.2-35.5s-9.1,2.9-13.8,1.6
			c0,0-2.1,10.6-7.6,10.2s-20.8-5.6-21.8-9.7s-4.4-15.1-8.1-18.2s-9.9-12.2-15-15.8c-5.1-3.6-16.2-3.8-20.3-2.4
			c-4.1,1.5-30.7,4.2-43.7-0.6s-53.4-28.9-55.7-31.2c-2.3-2.3-17.5-0.1-21.6-2.8c-4.2-2.7,0.7-12.4-5.8-16S99.5,346.9,93.5,347
			s-1.1-9.6-4.4-15.5S81,317.4,80.9,310s-1.3-19.3-3.2-25.2s-9.4-9.5-7.7-19.2c1.7-9.7-2.3-17.4-0.7-24.3c1.5-6.9,8.2-23.1,8-29.1
			s2.9-15.2,5.6-20.8s18.6-64.7,18.6-64.7S93.8,115.6,105.6,111.3z"/>
	</g>
	<g id="Layer_10" class="st3">
		<path class="st16" d="M23.7,408.3c0,0,16.8-33.6,0-63.9c37-23.5,37-50.4,37-70.6s13.4-50.4,13.4-50.4s124.4,6.7,134.5,0
			s10.1-6.7,10.1-6.7l20.2-16.8h107.6l60.5-20.2c0,0,302.6-16.8,326.1-23.5s40.3,0,40.3,0s-6.7,57.2-37,67.2
			c-30.3,10.1-3.4-6.7-30.3,10.1s-33.6,40.7-47.1,47.3c-13.4,6.5-53.8,6.5-60.5,30.1s-30.3,20.2-30.3,37s0,16.8,0,16.8
			S64,418.4,23.7,408.3z"/>
	</g>
	<rect x="232.9" y="242.6" class="st10" width="297.3" height="128.7"/>
	<text transform="matrix(1 0 0 1 262.9636 320.9675)" class="st1 st11 st17 st18">Enter</text>
</g>
<g id="Layer_3">
</g>
<g id="Layer_4">
	<rect x="87.6" y="81.2" class="st19" width="607.1" height="415.4"/>
</g>
<g id="Layer_2">
	<polygon class="st16" points="116.3,100.4 119.2,106.3 125.7,107.2 121,111.8 122.1,118.2 116.3,115.2 110.6,118.2 111.7,111.8 
		107,107.2 113.4,106.3 	"/>
	<polygon class="st16" points="140.5,123.2 143.4,129.1 149.8,130 145.2,134.6 146.3,141 140.5,138 134.7,141 135.8,134.6 
		131.1,130 137.6,129.1 	"/>
	<polygon class="st16" points="193,123.2 195.8,129.1 202.3,130 197.6,134.6 198.7,141 193,138 187.2,141 188.3,134.6 183.6,130 
		190.1,129.1 	"/>
	<polygon class="st16" points="244.2,123.2 247.1,129.1 253.5,130 248.8,134.6 249.9,141 244.2,138 238.4,141 239.5,134.6 
		234.8,130 241.3,129.1 	"/>
	<polygon class="st16" points="294.8,123.2 297.7,129.1 304.2,130 299.5,134.6 300.6,141 294.8,138 289,141 290.1,134.6 285.5,130 
		291.9,129.1 	"/>
	<polygon class="st16" points="346.1,123.2 348.9,129.1 355.4,130 350.7,134.6 351.8,141 346.1,138 340.3,141 341.4,134.6 
		336.7,130 343.2,129.1 	"/>
	<polygon class="st16" points="141.4,165.8 144.3,171.7 150.7,172.6 146.1,177.2 147.2,183.6 141.4,180.6 135.6,183.6 136.7,177.2 
		132,172.6 138.5,171.7 	"/>
	<polygon class="st16" points="193.8,165.8 196.7,171.7 203.2,172.6 198.5,177.2 199.6,183.6 193.8,180.6 188.1,183.6 189.2,177.2 
		184.5,172.6 191,171.7 	"/>
	<polygon class="st16" points="245.1,165.8 247.9,171.7 254.4,172.6 249.7,177.2 250.8,183.6 245.1,180.6 239.3,183.6 240.4,177.2 
		235.7,172.6 242.2,171.7 	"/>
	<polygon class="st16" points="295.7,165.8 298.6,171.7 305,172.6 300.4,177.2 301.5,183.6 295.7,180.6 289.9,183.6 291,177.2 
		286.4,172.6 292.8,171.7 	"/>
	<polygon class="st16" points="347,165.8 349.8,171.7 356.3,172.6 351.6,177.2 352.7,183.6 347,180.6 341.2,183.6 342.3,177.2 
		337.6,172.6 344.1,171.7 	"/>
	<polygon class="st16" points="141.4,209.7 144.3,215.6 150.7,216.5 146.1,221.1 147.2,227.5 141.4,224.5 135.6,227.5 136.7,221.1 
		132,216.5 138.5,215.6 	"/>
	<polygon class="st16" points="193.8,209.7 196.7,215.6 203.2,216.5 198.5,221.1 199.6,227.5 193.8,224.5 188.1,227.5 189.2,221.1 
		184.5,216.5 191,215.6 	"/>
	<polygon class="st16" points="245.1,209.7 247.9,215.6 254.4,216.5 249.7,221.1 250.8,227.5 245.1,224.5 239.3,227.5 240.4,221.1 
		235.7,216.5 242.2,215.6 	"/>
	<polygon class="st16" points="295.7,209.7 298.6,215.6 305,216.5 300.4,221.1 301.5,227.5 295.7,224.5 289.9,227.5 291,221.1 
		286.4,216.5 292.8,215.6 	"/>
	<polygon class="st16" points="347,209.7 349.8,215.6 356.3,216.5 351.6,221.1 352.7,227.5 347,224.5 341.2,227.5 342.3,221.1 
		337.6,216.5 344.1,215.6 	"/>
	<polygon class="st16" points="141.4,253.6 144.3,259.5 150.7,260.4 146.1,265 147.2,271.4 141.4,268.4 135.6,271.4 136.7,265 
		132,260.4 138.5,259.5 	"/>
	<polygon class="st16" points="193.8,253.6 196.7,259.5 203.2,260.4 198.5,265 199.6,271.4 193.8,268.4 188.1,271.4 189.2,265 
		184.5,260.4 191,259.5 	"/>
	<polygon class="st16" points="245.1,253.6 247.9,259.5 254.4,260.4 249.7,265 250.8,271.4 245.1,268.4 239.3,271.4 240.4,265 
		235.7,260.4 242.2,259.5 	"/>
	<polygon class="st16" points="295.7,253.6 298.6,259.5 305,260.4 300.4,265 301.5,271.4 295.7,268.4 289.9,271.4 291,265 
		286.4,260.4 292.8,259.5 	"/>
	<polygon class="st16" points="347,253.6 349.8,259.5 356.3,260.4 351.6,265 352.7,271.4 347,268.4 341.2,271.4 342.3,265 
		337.6,260.4 344.1,259.5 	"/>
	<polygon class="st16" points="167.6,100.4 170.5,106.3 176.9,107.2 172.3,111.8 173.4,118.2 167.6,115.2 161.8,118.2 162.9,111.8 
		158.2,107.2 164.7,106.3 	"/>
	<polygon class="st16" points="217.6,100.4 220.5,106.3 227,107.2 222.3,111.8 223.4,118.2 217.6,115.2 211.9,118.2 213,111.8 
		208.3,107.2 214.7,106.3 	"/>
	<polygon class="st16" points="270.1,100.4 273,106.3 279.4,107.2 274.8,111.8 275.9,118.2 270.1,115.2 264.3,118.2 265.4,111.8 
		260.7,107.2 267.2,106.3 	"/>
	<polygon class="st16" points="320.7,100.4 323.6,106.3 330.1,107.2 325.4,111.8 326.5,118.2 320.7,115.2 315,118.2 316.1,111.8 
		311.4,107.2 317.9,106.3 	"/>
	<polygon class="st16" points="372,102.8 374.9,108.7 381.3,109.6 376.7,114.2 377.8,120.6 372,117.6 366.2,120.6 367.3,114.2 
		362.6,109.6 369.1,108.7 	"/>
	<polygon class="st16" points="116.3,145.2 119.2,151.1 125.7,152 121,156.6 122.1,163 116.3,160 110.6,163 111.7,156.6 107,152 
		113.4,151.1 	"/>
	<polygon class="st16" points="167.6,145.2 170.5,151.1 176.9,152 172.3,156.6 173.4,163 167.6,160 161.8,163 162.9,156.6 
		158.2,152 164.7,151.1 	"/>
	<polygon class="st16" points="217.6,145.2 220.5,151.1 227,152 222.3,156.6 223.4,163 217.6,160 211.9,163 213,156.6 208.3,152 
		214.7,151.1 	"/>
	<polygon class="st16" points="270.1,145.2 273,151.1 279.4,152 274.8,156.6 275.9,163 270.1,160 264.3,163 265.4,156.6 260.7,152 
		267.2,151.1 	"/>
	<polygon class="st16" points="320.7,145.2 323.6,151.1 330.1,152 325.4,156.6 326.5,163 320.7,160 315,163 316.1,156.6 311.4,152 
		317.9,151.1 	"/>
	<polygon class="st16" points="372,147.6 374.9,153.5 381.3,154.4 376.7,159 377.8,165.4 372,162.4 366.2,165.4 367.3,159 
		362.6,154.4 369.1,153.5 	"/>
	<polygon class="st16" points="116.3,186.5 119.2,192.3 125.7,193.3 121,197.8 122.1,204.2 116.3,201.2 110.6,204.2 111.7,197.8 
		107,193.3 113.4,192.3 	"/>
	<polygon class="st16" points="167.6,186.5 170.5,192.3 176.9,193.3 172.3,197.8 173.4,204.2 167.6,201.2 161.8,204.2 162.9,197.8 
		158.2,193.3 164.7,192.3 	"/>
	<polygon class="st16" points="217.6,186.5 220.5,192.3 227,193.3 222.3,197.8 223.4,204.2 217.6,201.2 211.9,204.2 213,197.8 
		208.3,193.3 214.7,192.3 	"/>
	<polygon class="st16" points="270.1,186.5 273,192.3 279.4,193.3 274.8,197.8 275.9,204.2 270.1,201.2 264.3,204.2 265.4,197.8 
		260.7,193.3 267.2,192.3 	"/>
	<polygon class="st16" points="320.7,186.5 323.6,192.3 330.1,193.3 325.4,197.8 326.5,204.2 320.7,201.2 315,204.2 316.1,197.8 
		311.4,193.3 317.9,192.3 	"/>
	<polygon class="st16" points="372,188.9 374.9,194.7 381.3,195.7 376.7,200.2 377.8,206.7 372,203.6 366.2,206.7 367.3,200.2 
		362.6,195.7 369.1,194.7 	"/>
	<polygon class="st16" points="116.3,233 119.2,238.9 125.7,239.8 121,244.4 122.1,250.8 116.3,247.8 110.6,250.8 111.7,244.4 
		107,239.8 113.4,238.9 	"/>
	<polygon class="st16" points="167.6,233 170.5,238.9 176.9,239.8 172.3,244.4 173.4,250.8 167.6,247.8 161.8,250.8 162.9,244.4 
		158.2,239.8 164.7,238.9 	"/>
	<polygon class="st16" points="217.6,233 220.5,238.9 227,239.8 222.3,244.4 223.4,250.8 217.6,247.8 211.9,250.8 213,244.4 
		208.3,239.8 214.7,238.9 	"/>
	<polygon class="st16" points="270.1,233 273,238.9 279.4,239.8 274.8,244.4 275.9,250.8 270.1,247.8 264.3,250.8 265.4,244.4 
		260.7,239.8 267.2,238.9 	"/>
	<polygon class="st16" points="320.7,233 323.6,238.9 330.1,239.8 325.4,244.4 326.5,250.8 320.7,247.8 315,250.8 316.1,244.4 
		311.4,239.8 317.9,238.9 	"/>
	<polygon class="st16" points="372,235.4 374.9,241.3 381.3,242.2 376.7,246.8 377.8,253.2 372,250.2 366.2,253.2 367.3,246.8 
		362.6,242.2 369.1,241.3 	"/>
	<polygon class="st16" points="116.4,274.9 119.3,280.8 125.8,281.7 121.1,286.3 122.2,292.7 116.4,289.7 110.7,292.7 111.8,286.3 
		107.1,281.7 113.5,280.8 	"/>
	<polygon class="st16" points="167.7,274.9 170.6,280.8 177,281.7 172.4,286.3 173.5,292.7 167.7,289.7 161.9,292.7 163,286.3 
		158.3,281.7 164.8,280.8 	"/>
	<polygon class="st16" points="217.7,274.9 220.6,280.8 227.1,281.7 222.4,286.3 223.5,292.7 217.7,289.7 212,292.7 213.1,286.3 
		208.4,281.7 214.8,280.8 	"/>
	<polygon class="st16" points="270.2,274.9 273.1,280.8 279.5,281.7 274.9,286.3 276,292.7 270.2,289.7 264.4,292.7 265.5,286.3 
		260.8,281.7 267.3,280.8 	"/>
	<polygon class="st16" points="320.8,274.9 323.7,280.8 330.2,281.7 325.5,286.3 326.6,292.7 320.8,289.7 315.1,292.7 316.2,286.3 
		311.5,281.7 318,280.8 	"/>
	<polygon class="st16" points="372.1,277.4 375,283.2 381.4,284.1 376.7,288.7 377.9,295.1 372.1,292.1 366.3,295.1 367.4,288.7 
		362.7,284.1 369.2,283.2 	"/>
</g>
<g id="Layer_5" class="st0">
	<polygon class="st20" points="133.3,179.8 166.3,246.5 239.9,257.2 186.6,309.1 199.2,382.4 133.3,347.8 67.5,382.4 80.1,309.1 
		26.8,257.2 100.4,246.5 	"/>
	<polygon class="st20" points="189.9,179.8 222.9,246.5 296.5,257.2 243.2,309.1 255.8,382.4 189.9,347.8 124.1,382.4 136.7,309.1 
		83.4,257.2 157,246.5 	"/>
	<polygon class="st20" points="239.9,179.8 272.8,246.5 346.4,257.2 293.2,309.1 305.7,382.4 239.9,347.8 174,382.4 186.6,309.1 
		133.3,257.2 207,246.5 	"/>
	<polygon class="st20" points="296.5,179.8 329.4,246.5 403,257.2 349.7,309.1 362.3,382.4 296.5,347.8 230.6,382.4 243.2,309.1 
		189.9,257.2 263.5,246.5 	"/>
	<polygon class="st20" points="346.4,179.8 379.3,246.5 453,257.2 399.7,309.1 412.3,382.4 346.4,347.8 280.6,382.4 293.2,309.1 
		239.9,257.2 313.5,246.5 	"/>
	<polygon class="st20" points="403,179.8 435.9,246.5 509.5,257.2 456.3,309.1 468.9,382.4 403,347.8 337.2,382.4 349.7,309.1 
		296.5,257.2 370.1,246.5 	"/>
	<polygon class="st20" points="453,179.8 485.9,246.5 559.5,257.2 506.2,309.1 518.8,382.4 453,347.8 387.1,382.4 399.7,309.1 
		346.4,257.2 420,246.5 	"/>
	<polygon class="st20" points="509.5,179.8 542.5,246.5 616.1,257.2 562.8,309.1 575.4,382.4 509.5,347.8 443.7,382.4 456.3,309.1 
		403,257.2 476.6,246.5 	"/>
	<polygon class="st20" points="559.5,179.8 592.4,246.5 666,257.2 612.8,309.1 625.3,382.4 559.5,347.8 493.7,382.4 506.2,309.1 
		453,257.2 526.6,246.5 	"/>
	<polygon class="st20" points="609.4,179.8 642.4,246.5 716,257.2 662.7,309.1 675.3,382.4 609.4,347.8 543.6,382.4 556.2,309.1 
		502.9,257.2 576.5,246.5 	"/>
	<polygon class="st20" points="666,179.8 699,246.5 772.6,257.2 719.3,309.1 731.9,382.4 666,347.8 600.2,382.4 612.8,309.1 
		559.5,257.2 633.1,246.5 	"/>
</g>
<g id="Layer_6" class="st0">
	<polygon class="st21" points="396,68.9 423.2,124 484,132.9 440,175.8 450.4,236.4 396,207.8 341.6,236.4 352,175.8 308,132.9 
		368.8,124 	"/>
	<polygon class="st22" points="396,543.1 423.2,488 484,479.1 440,436.2 450.4,375.6 396,404.2 341.6,375.6 352,436.2 308,479.1 
		368.8,488 	"/>
	<polygon class="st23" points="158.9,306 214,278.8 222.9,218 265.8,262 326.4,251.6 297.8,306 326.4,360.4 265.8,350 222.9,394 
		214,333.2 	"/>
	<polygon class="st24" points="633.1,306 578,278.8 569.1,218 526.2,262 465.6,251.6 494.2,306 465.6,360.4 526.2,350 569.1,394 
		578,333.2 	"/>
</g>
<g id="Layer_7">
	<rect y="532.4" class="st25" width="792" height="49.9"/>
	<text transform="matrix(1 0 0 1 291.2646 567.3303)" class="st26 st27">Familiarity</text>
</g>
</svg>
