<?xml version="1.0" encoding="utf-8"?>
<!-- Generator: Adobe Illustrator 21.0.2, SVG Export Plug-In . SVG Version: 6.00 Build 0)  -->
<svg version="1.1" xmlns="http://www.w3.org/2000/svg" xmlns:xlink="http://www.w3.org/1999/xlink" x="0px" y="0px"
	 viewBox="0 0 792 612" style="enable-background:new 0 0 792 612;" xml:space="preserve">
<style type="text/css">
	.st0{display:none;}
	.st1{display:inline;fill:#FFFFFF;}
	.st2{display:inline;fill:#757575;}
	.st3{display:inline;}
	.st4{opacity:0.54;fill:#BABBBE;enable-background:new    ;}
	.st5{display:inline;fill:#B0B0B0;}
	.st6{display:inline;fill:#B0B0B1;}
	.st7{display:inline;fill:none;stroke:#B0B0B1;stroke-width:7;stroke-miterlimit:10;}
	.st8{display:inline;fill:#E8E627;}
	.st9{display:inline;fill:#F095BF;}
	.st10{display:inline;fill:none;}
	.st11{font-family:'Agenda-Regular';}
	.st12{font-size:59px;}
	.st13{font-size:43px;}
	.st14{display:inline;fill:#E8E627;stroke:#010101;stroke-width:7;stroke-miterlimit:10;}
	.st15{display:inline;fill:#EF95BF;stroke:#010101;stroke-width:7;stroke-miterlimit:10;}
	.st16{fill:#F095BF;}
	.st17{font-size:110px;}
	.st18{letter-spacing:1;}
	.st19{display:inline;fill:none;stroke:#F095BF;stroke-width:3;stroke-miterlimit:10;}
	.st20{fill:#F095BF;stroke:#FFFFFF;stroke-width:3;stroke-miterlimit:10;}
	.st21{display:inline;fill:#EEFF30;stroke:#000000;stroke-width:3;stroke-miterlimit:10;}
	.st22{display:inline;fill:#08FF4E;stroke:#000000;stroke-width:3;stroke-miterlimit:10;}
	.st23{display:inline;fill:#06FFFF;stroke:#000000;stroke-width:3;stroke-miterlimit:10;}
	.st24{display:inline;fill:#FF9933;stroke:#000000;stroke-width:3;stroke-miterlimit:10;}
</style>
<g id="Layer_1" class="st0">
	<g id="Layer_1_1_">
		
			<image style="display:inline;overflow:visible;enable-background:new    ;" width="548" height="410" xlink:href="BCAB11B6AE446805.jpg"  transform="matrix(2.4797 0 0 2.4828 -306.2807 -295.8212)">
		</image>
		<path class="st1" d="M156.7,293.8"/>
	</g>
	<g id="gator">
		<path class="st2" d="M379,325.9c0,0-31.7,4.4-38.2,1.6c-6.6-2.8-15.2-17.6-32.5,2.1c0,0-23.8,6.7-28.6,6.9
			c-4.8,0.2-49,14.8-56.3,12.4s-15.2-8.3-22.8,3.6s-11.2,14.7-1.9,14.6s43.6-5.6,55-0.2s31.4,6.1,35.6,4.6s37.8,2.7,42.5-1.7
			c0,0,18.9-1.5,21.9-4.5c3-3.1-15.1,15.6-16.7,15.2s-3.5-8.2-5.5-5.4c-2.1,2.8-3.7,10.7-3.7,10.7s-2.3-7.1-4-6s-3.2,8.9-3.2,8.9
			s-0.7-5.7-4.1-6.7s-6.8,12.1-6.8,12.1s-0.3-10.8-3.3-10.5s-4.1,10.8-4.9,13c0,0-4.5-11.9-6-10.1s-2.6,13.9-2.6,13.9
			s-2.8-9.3-5.5-6.9c-2.7,2.3-5.9,13.7-5.9,13.7s-3-10.3-4.8-9.6c-1.7,0.8-3.9,14-3.9,14s-2.6-11.6-4.2-9.5s-5.8,11.5-5.8,11.5
			s-36.5,20.6-41.4,18.1s-10.2-1.5-8.1,3.9c2.1,5.4,7.3,10.6,11.9,11c4.7,0.5,62.4-20.2,63.3-20.6s24.4-7.5,31.6-7.5
			s26,2.3,36.3-10.5C366.6,395.2,432,337.3,379,325.9z"/>
		<path class="st2" d="M198.6,364.8c0,0,1.2,6.7,2.4,6.3c1.2-0.4,4.9-6.3,4.9-6.3s-2.2,6.5,0,6.3s5.9-6.3,5.9-6.3s0,6.3,1,6.3
			s6.9-6.3,6.9-6.3s-0.2,7.3,0.8,6.3s7.3-7.7,7.3-7.7s-1,7.1,0,6.7s6.1-6.7,6.1-6.7s-1.8,5.3,0,5.3s5.5-5.3,5.5-5.3s0.6,3.8,1.6,3.9
			s4.7-5.7,4.7-5.7s-1,5.9,0,5.9s4.1-5.9,4.1-5.9s-0.8,5.3,0,5.9s5.5-5.9,5.5-5.9l-36.5-5.5L198.6,364.8z"/>
	</g>
	<g id="race">
		<polygon class="st1" points="116.7,445 106.5,434.1 123.4,437.2 114.9,425.7 132.4,425.7 119.4,411.9 139,414.9 130.6,400.4 
			149.8,403.4 139.6,389.6 153.5,389.6 148.6,377.6 163.7,381.2 155.9,369.1 172.7,372.1 158.3,357.1 176.2,357.1 169.1,348.1 
			186,355.9 179.3,338.4 186,343.5 186,331.2 195,337.2 191.4,324 204,330 129.4,439 		"/>
		<polygon class="st1" points="54.1,390.8 63.1,400.4 63.1,388.4 71.6,394.4 71.6,380 83,392.6 79.4,374.5 94.5,384.5 90.2,357.1 
			102.9,381.8 106.5,360.1 114.9,366.1 114.9,354.1 128.2,361.3 128.2,346.9 137.8,352.9 137.8,343.2 149.8,348.7 149.8,337.8 
			161.3,344.4 161.3,328.8 169.7,336 167.3,324 179.9,327.6 170.9,316.8 102.9,346.3 54.1,377.6 		"/>
		
			<image style="display:inline;overflow:visible;enable-background:new    ;" width="606" height="556" xlink:href="BCAB11B6AE446807.png"  transform="matrix(0.4983 0 0 0.4982 554.2401 246.1253)">
		</image>
		<g class="st3">
			<path class="st4" d="M463.6,340.3c0,0,11.3,23.6,11.3,28l11.3-24.5c-3.7-0.2-15-19.7-15-19.7C471.2,325.3,463.6,341,463.6,340.3z
				"/>
			<path class="st4" d="M466.1,382.7c-2.9-2.9-13.1-19.2-13.1-19.2c0.2,1.2-10.9,21.1-10.9,21.1l12,20.6
				C454.1,405.1,463.1,383.4,466.1,382.7z"/>
			<path class="st4" d="M463.6,340.3c0-0.7-15.7-17.8-15.7-17.8l-8.7,19.2c0,0,13.7,20.6,13.8,21.7L463.6,340.3z"/>
			<path class="st4" d="M500.8,363.1L492,382l17.8,10.2l9-18.7C516.8,373.4,500.8,363.1,500.8,363.1z"/>
			<path class="st4" d="M447.8,322.5l9.7-18.7c0-2.1-18.4-13.8-18.4-13.8l-8.4,17.3C433.9,308,447.8,322.5,447.8,322.5z"/>
			<path class="st4" d="M485.6,311.5c-30.5-54.5-56.7-52.9-56.7-52.9l-45.2,102.5c19.1,3.8,35.4,28.3,48.9,53.9s66.6,43.6,66.6,43.6
				l47.9-99.1C521.6,364.9,485.6,317,485.6,311.5z M524.7,397.5c-1.2,0-14.8-5.3-14.8-5.3l-9,18.7l14.8,6.2l-9.3,19.2
				c0,0-14.8-5.3-14.8-8.8l-10.2,20.6l-17.4-9.5c0,0,7.4-17.5,9.1-18.8c-6.1-0.7-18.9-14.8-18.9-14.8l-10.4,18.5
				c-3-0.9-12.5-18.5-12.5-18.5l10.9-20.6c0,0-13.7-16.2-14.1-19.2l-9.7,19.2c-1.2-3-14.8-17.1-14.8-17.1l7.4-17.1
				c3.7-0.9,17.1,15,17.1,15l11.2-23.6l-17.9-13c0,0-9,19.2-9.7,19.2s-14.1-7.1-15-7.6S406,321,406,321s14.1,4.9,15.5,7.6l9.4-21.5
				l-16.2-8.7l7.5-16.4l17.2,7.7l9.7-18.1c3.8,1.2,18,14.6,18,14.6s-8.1,16.9-9.1,17.5c2.9,3.3,13.5,19.1,13.5,20.2l9.5-16.2
				c0,3.5,13.4,21.5,13.4,21.5l-7.9,14.3c0,0,13.7,18.3,14.6,19.3c0,0,6.2-17.5,7.9-16.1c1.6,1.4,18.7,11.6,18.7,11.6
				s-6.5,14.8-8.6,14.8l14.3,6C533.2,379.4,525.8,397.5,524.7,397.5z"/>
			<path class="st4" d="M473.3,419.9c0.7,1.9,18.3,7.6,18.3,7.6c0-3.5,9.3-16.7,9.3-16.7l-21.1-9.9L473.3,419.9z"/>
			<path class="st4" d="M474.9,368.3c0,0-6.9,14.1-8.1,14.8c1.9,4.2,13,17.8,13,17.8s9.7-18,12.3-19
				C492,382,474.7,372.9,474.9,368.3z"/>
		</g>
	</g>
	<g id="titanic">
		
			<image style="display:inline;overflow:visible;enable-background:new    ;" width="383" height="371" xlink:href="BCAB11B6AE446805.png"  transform="matrix(0.8865 0 0 0.8866 221.2135 168.1999)">
		</image>
		<path class="st5" d="M404.5,237.5H396c0,0-4.8-51.5,4.3-52c9.1-0.5,13.4,0,13.4,0v268.8v37.8h-30.2c0,0-11.3-31.8-16.7-31.3
			c-5.4,0.5-5.9,2.2-9.7,2.2s-28.6,1.6-28.6-3.8s-4.9-14,0-14s30.2-1.6,30.2-1.6s5.9-4.9,3.2-7.6s-17.8-22.1-20.5-43.2
			c0,0-4.9-11.9-9.2-11.9s5.4-36.9,22.7-42.2c0,0,21.1,14.2,19.4,36.8c0,0-5.4,2.7-4.3,10.3c1.1,7.6,11.3,52.9,31.3,52.4
			L404.5,237.5z"/>
		<path class="st5" d="M422.8,237.5h8.5c0,0,4.8-51.5-4.3-52c-9.1-0.5-13.4,0-13.4,0v268.8v37.8h30.2c0,0,11.3-31.8,16.7-31.3
			s5.9,2.2,9.7,2.2s28.6,1.6,28.6-3.8s4.9-14,0-14s-30.2-1.6-30.2-1.6s-5.9-4.9-3.2-7.6c2.7-2.7,17.8-22.1,20.5-43.2
			c0,0,4.9-11.9,9.2-11.9c4.3,0-5.4-36.9-22.7-42.2c0,0-21.1,14.2-19.4,36.8c0,0,5.4,2.7,4.3,10.3c-1.1,7.6-11.3,52.9-31.3,52.4
			L422.8,237.5z"/>
	</g>
	<g id="wunder">
		
			<image style="display:inline;overflow:visible;enable-background:new    ;" width="439" height="789" xlink:href="BCAB11B6AE446803.png"  transform="matrix(0.6245 0 0 0.6251 306 45)">
		</image>
		<path class="st5" d="M453.5,127.9l20.7-27.5l53.4,16.6c0,0-66.8,233.1-66.3,251.7s46.1,31.1,58.5,30.6c12.4-0.5-21.2,3.1-21.2,3.1
			s24.3,7.3,33.7,6.7c9.3-0.5-16.6,3.1-16.6,3.1s26.4,0.5,30,9.3c0-9.5-31.6-0.1-35.9,0c-4.3,0.1,11.2,13.6,11.2,13.6
			s-45-19.5-48-29.1s9.3,16.5,11.2,17.5s-26.8-29.1-26.8-35.4s14.9,59.5,23.8,64.5s-13.9-6.3-13.9-6.3s22.8,28.4,27.4,29.4
			s-14.2,0-14.2,0s28.8,25.1,35.1,24.8c6.3-0.3-27.8-2.3-27.8-2.3s-0.7,11.9-4.3,12.9c0,0-6.6-31.7-11.2-36s0.3,19.8,0.3,19.8
			s-16.5-49.9-17.5-56.6c-1-6.6,0.8,19.2-1.8,21.5c-2.5,2.3-6.2-39.4-6.2-39.4s-14.2,45.6-15.5,53.2s-4.3-19.8-4.3-19.8
			s-13.9,41.3-13.9,48.9s-2-30.1-2-30.1s-2.5,32.4-15.6,33.7c0,0,1.4-20.2,1.4-21.5s-14.6,7.6-14.9,13.9s9.3-34.7,21.2-40.7
			s-21.2-2-21.2-2s25.1-8.6,34.1-25.8c0,0-10.8,3-20.6,4.6c-9.8,1.7,29.5-17.2,36.1-37c0,0-32.1,9.5-36.1,13.5
			c-4,3.9,6.2-9.2,6.2-9.2s-21,6.9-24.9,12.1s6.2-12.4,6.2-12.4s-31.4,12.8-33.1,16c-1.6,3.3,18.3-19,18.3-19s-28.8,1.6-31.4-4.3
			c0,0,26.9-4.3,32.1-5.6s-13.8-12.4-13.8-12.4s30.5,9.8,42.9,8.5c0,0-9.5-8.8-9.8-11.5c-0.3-2.6,37.7,10.2,44.2,8.2
			c6.6-2,55.9-227.4,49.6-238L453.5,127.9z"/>
	</g>
	<g id="flamingo">
		
			<image style="display:inline;overflow:visible;enable-background:new    ;" width="637" height="789" xlink:href="BCAB11B6AE44680D.png"  transform="matrix(0.5531 0 0 0.5532 149.2767 68.1009)">
		</image>
		<path class="st6" d="M231.2,89c0,0-9-1.3-14.2,21.1c0,0-15.1,11.2-15.9,21.9c-0.9,10.8,6.9,33.6,9.9,33.6s7.3-24.5,7.3-27.5
			s7.7-13.3,12.9-13.3s12-3.9,15.1-6.9c3-3,9-5.2,11.6,0.4c2.6,5.6,13.3,27.1-16.3,55.9s-43,61.5-33.6,86.9s50.3,37.4,67.1,36.1
			s21.9,3.4,26.7,4.7c4.7,1.3,12.1,9,23.7,7.3s28.8-6.9,30.1-11.2s9.9-6.5,16.8-6.5s27.1-8.2,32.3-7.3c5.2,0.9,40.4,18.1,42.6,18.1
			s12.5,4.3,7.3-1.3c-5.2-5.6-49.5-50.8-56.4-51.2s-21.5-38.3-72.7-40.4c0,0-26.7,0.4-35.3,3.9c-8.6,3.4-49,0-44.3-11.2
			s25-31,25.8-36.6c0.9-5.6,11.2-26.2,3.4-47.7C267.3,96.3,245.8,81.7,231.2,89z"/>
		<line class="st7" x1="325.4" y1="309.2" x2="325.4" y2="486.5"/>
		<polyline class="st7" points="325.4,302.5 261.1,370 333.3,412.8 		"/>
	</g>
	<g id="home">
		<polygon class="st6" points="219.2,287.6 390.1,96.2 390.1,341.4 331.3,341.4 331.3,477.5 219.2,477.5 		"/>
		<polygon class="st6" points="561,287.6 390.1,96.2 390.1,341.4 448.9,341.4 448.9,477.5 561,477.5 		"/>
	</g>
	<g id="Layer_8">
		
			<image style="display:inline;overflow:visible;enable-background:new    ;" width="722" height="612" xlink:href="BCAB11B6AE44680F.png"  transform="matrix(0.8113 0 0 0.8113 69.8094 80.0585)">
		</image>
		<path class="st6" d="M107.4,188.6c0,0,6.9-31.7,11.6-33.2c0,0,3.7-34.3,25.3-35.9s28.5-8.4,52.2,10.6s34.8,36.4,36.9,50.7
			c2.1,14.2,40.1,48,40.1,48l29.6,20.6c0,0,26.4,8.4,30.1,10.6c3.7,2.1,31.1,15.3,35.4,15.3c4.2,0,25.3,3.7,29,3.2
			s-5.8,11.6-9.8,11.6s79.4,68.6,87.9,75.5c8.4,6.9,49.6,27.4,55.9,27.4c6.3,0,49.6,17.9,52.2,21.6s0,11.1,0,11.1s17.4,3.7,23.2,5.8
			c5.8,2.1,14.8,10.6,13.2,15.8c-1.6,5.3-11.1,27.4-25.9,26.4s-86.5-24.3-98.2-24.3c-11.6,0-81.3-1.1-88.7-2.1
			c0,0-62.3,22.2-69.1,24.3c-6.9,2.1-21.1,25.3-19,28.5s21.6,1.6,21.6,5.8c0,4.2-1.1,14.2-10,12.1s-17.9-1-25.3,0.3
			s-23.7-0.2-30.1,0s-19,5.6-20.1,0.5c-1.1-5-10-0.3-10-5.6s29.6-11.6,36.9-11.6s22.2-1.6,22.2-1.6s9.5-32.2,0.5-33.8
			s-71.8-24.3-83.9-34.8c-12.1-10.6-40.6-34.3-41.7-39c0,0-28-29-28.5-39c-6.5-9.5-13.5-49.4,0-69.1c6.3-7.9,5.8-73.9,5.8-80.7
			c0-6.9-2.1-16.4-5.3-16.4s-10,0.4-14.8-5.3C131.3,178.5,107.4,188.6,107.4,188.6z"/>
	</g>
	<g id="amurica">
		<path class="st8" d="M115.6,117.5c0,0,6.6,9.5,13.9,8.5s-0.2-11.9,3.9-12c4.1-0.1,139.3,29.2,149.4,28.6
			c10.1-0.6,130.3,12.4,142.6,4.8c12.3-7.6,13.5,10.8,22.7,10.6s12.9-0.2,22.1,1.9s23.4-0.9,28.8-9.2c5.4-8.4,29.3-5.4,32.8,8.9
			c0,0,12.2-11.1,22.9,20.4c0,0,21.3,7,32.2,2.6c11-4.3,16.2,8.9,17.7,10.7c1.4,1.8,7.4,2.2,5.7,7.7s-2.6,8.3-6.7,8.4
			c-4.1,0.1-16.1-2.9-15.1,3c1,6,3.9,15.1,2.6,17.9s12.5,7.1,14.7-0.3c2.2-7.4,6.1-17.6,16.6-21.4s27-6.5,36.3-25
			c0,0,21.4-12.8,30.6-13.4c9.2-0.6,15.8-14.1,15.3-16.4c-0.5-2.3-6.8-21.9-0.4-24.3c6.4-2.4,15-9.9,21.5-3.1
			c6.6,6.8,10.5,22.8,10.5,22.8s20.3,6.1,13.6,15.4c-6.7,9.3-10.4,9.8-10.4,9.8s-27.7,18-18.1,40.3c0,0,13.7-3.5,11.2,8.5
			s-39.3,14.5-41.3,30.1c0,0,3.1,22-5,28.6c0,0-1.9,22.1-11.5,23.6s7.1,10,8.5,11.3s8.5,11.3,4.1,22s-22.4,30.3-26.1,33.1
			c-3.6,2.8-16.5,29.7-26.1,30.3c-9.6,0.6-10.9,35.6,7.4,54.6s17.7,39.7,17.8,46.1s-4.2,24-14.9,12.7c-10.8-11.3-11.6-3.5-14.9-11.7
			c-3.4-8.2-7.4-2.6-17.4-24s-15.6-23.2-20.8-32.3c0,0-12.5,11.3-15.7,7.2c-3.1-4.1-6.9-7.2-11.4-7.2c-4.6,0.1-9.3-6.3-16.6-1.5
			c-7.3,4.7-22,3.6-21.9,7.7s7.2,16-2.4,17.5c-9.6,1.5-17,0.3-20.7,0.8s-12-5.3-17.1-5.7s-13.7,2.5-18.9-0.6
			c-5.1-3.1-19.7,2.2-21.1,3.6s-31.4,16.2-35.8,26.4s1.3,20.7,0.9,24.8c-0.4,4.1-7.6,13.3-24.3,3.3c-16.7-10-16-22.8-17-26.5
			s-18.5-33.7-22.2-35.5s-9.1,2.9-13.8,1.6c0,0-2.1,10.6-7.6,10.2s-20.8-5.6-21.8-9.7s-4.4-15.1-8.1-18.2c-3.7-3.2-9.9-12.2-15-15.8
			c-5.1-3.6-16.2-3.8-20.3-2.4c-4.1,1.5-30.7,4.2-43.7-0.6s-53.4-28.9-55.7-31.2c-2.3-2.3-17.5-0.1-21.6-2.8s0.7-12.4-5.8-16
			s-25.2-23.9-31.2-23.8s-1.1-9.6-4.4-15.5s-8.1-14.1-8.2-21.5s-1.3-19.3-3.2-25.2c-1.9-5.9-9.4-9.5-7.7-19.2
			c1.7-9.7-2.3-17.4-0.7-24.3c1.5-6.9,8.2-23.1,8-29.1s2.9-15.2,5.6-20.8s18.6-64.7,18.6-64.7S103.8,121.8,115.6,117.5z"/>
		<path class="st9" d="M480.6,374.2c0,0,2.3-4.7,0-8.9c5.1-3.3,5.1-7,5.1-9.8s1.9-7,1.9-7s17.3,0.9,18.7,0c1.4-0.9,1.4-0.9,1.4-0.9
			l2.8-2.3h15l8.4-2.8c0,0,42.1-2.3,45.4-3.3c3.3-0.9,5.6,0,5.6,0s-0.9,8-5.1,9.4c-4.2,1.4-0.5-0.9-4.2,1.4s-4.7,5.7-6.5,6.6
			c-1.9,0.9-7.5,0.9-8.4,4.2s-4.2,2.8-4.2,5.1s0,2.3,0,2.3S486.2,375.6,480.6,374.2z"/>
	</g>
	<g id="Layer_12">
		<path class="st8" d="M96.7,102.2c0,0,6.6,9.5,13.9,8.5s-0.2-11.9,3.9-12s139.3,29.2,149.4,28.6c10.1-0.6,130.3,12.4,142.6,4.8
			c12.3-7.6,13.5,10.8,22.7,10.6s12.9-0.2,22.1,1.9s23.4-0.9,28.8-9.2c5.4-8.4,29.3-5.4,32.8,8.9c0,0,12.2-11.1,22.9,20.4
			c0,0,21.3,7,32.2,2.6c11-4.3,16.2,8.9,17.7,10.7c1.4,1.8,7.4,2.2,5.7,7.7s-2.6,8.3-6.7,8.4c-4.1,0.1-16.1-2.9-15.1,3
			c1,6,3.9,15.1,2.6,17.9c-1.3,2.8,12.5,7.1,14.7-0.3c2.2-7.4,6.1-17.6,16.6-21.4c10.5-3.9,27-6.5,36.3-25c0,0,21.4-12.8,30.6-13.4
			s15.8-14.1,15.3-16.4s-6.8-21.9-0.4-24.3c6.4-2.4,15-9.9,21.5-3.1c6.6,6.8,10.5,22.8,10.5,22.8s20.3,6.1,13.6,15.4
			c-6.7,9.3-10.4,9.8-10.4,9.8s-27.7,18-18.1,40.3c0,0,13.7-3.5,11.2,8.5s-39.3,14.5-41.3,30.1c0,0,3.1,22-5,28.6
			c0,0-1.9,22.1-11.5,23.6s7.1,10,8.5,11.3c1.4,1.4,8.5,11.3,4.1,22s-22.4,30.3-26.1,33.1c-3.6,2.8-16.5,29.7-26.1,30.3
			s-10.9,35.6,7.4,54.6c18.3,19,17.7,39.7,17.8,46.1s-4.2,24-14.9,12.7c-10.8-11.3-11.6-3.5-14.9-11.7c-3.4-8.2-7.4-2.6-17.4-24
			s-15.6-23.2-20.8-32.3c0,0-12.5,11.3-15.7,7.2c-3.1-4.1-6.9-7.2-11.4-7.2c-4.6,0.1-9.3-6.3-16.6-1.5c-7.3,4.7-22,3.6-21.9,7.7
			s7.2,16-2.4,17.5c-9.6,1.5-17,0.3-20.7,0.8s-12-5.3-17.1-5.7s-13.7,2.5-18.9-0.6c-5.1-3.1-19.7,2.2-21.1,3.6s-31.4,16.2-35.8,26.4
			c-4.4,10.2,1.3,20.7,0.9,24.8c-0.4,4.1-7.6,13.3-24.3,3.3c-16.7-10-16-22.8-17-26.5s-18.5-33.7-22.2-35.5s-9.1,2.9-13.8,1.6
			c0,0-2.1,10.6-7.6,10.2s-20.8-5.6-21.8-9.7s-4.4-15.1-8.1-18.2c-3.7-3.2-9.9-12.2-15-15.8c-5.1-3.6-16.2-3.8-20.3-2.4
			c-4.1,1.5-30.7,4.2-43.7-0.6c-13-4.8-53.4-28.9-55.7-31.2c-2.3-2.3-17.5-0.1-21.6-2.8c-4.2-2.7,0.7-12.4-5.8-16
			s-25.2-23.9-31.2-23.8s-1.1-9.6-4.4-15.5s-8.1-14.1-8.2-21.5s-1.3-19.3-3.2-25.2s-9.4-9.5-7.7-19.2s-2.3-17.4-0.7-24.3
			c1.5-6.9,8.2-23.1,8-29.1s2.9-15.2,5.6-20.8s18.6-64.7,18.6-64.7S84.9,106.6,96.7,102.2z"/>
		<rect x="305.6" y="274.4" class="st10" width="180.8" height="78.3"/>
		<text transform="matrix(1 0 0 1 333.6968 316.4363)" class="st3 st11 st12">Enter</text>
	</g>
	<g id="Layer_12_copy">
		<path class="st8" d="M96.7,102.2c0,0,6.6,9.5,13.9,8.5s-0.2-11.9,3.9-12s139.3,29.2,149.4,28.6c10.1-0.6,130.3,12.4,142.6,4.8
			c12.3-7.6,13.5,10.8,22.7,10.6s12.9-0.2,22.1,1.9s23.4-0.9,28.8-9.2c5.4-8.4,29.3-5.4,32.8,8.9c0,0,12.2-11.1,22.9,20.4
			c0,0,21.3,7,32.2,2.6c11-4.3,16.2,8.9,17.7,10.7c1.4,1.8,7.4,2.2,5.7,7.7s-2.6,8.3-6.7,8.4c-4.1,0.1-16.1-2.9-15.1,3
			c1,6,3.9,15.1,2.6,17.9c-1.3,2.8,12.5,7.1,14.7-0.3c2.2-7.4,6.1-17.6,16.6-21.4c10.5-3.9,27-6.5,36.3-25c0,0,21.4-12.8,30.6-13.4
			s15.8-14.1,15.3-16.4s-6.8-21.9-0.4-24.3c6.4-2.4,15-9.9,21.5-3.1c6.6,6.8,10.5,22.8,10.5,22.8s20.3,6.1,13.6,15.4
			c-6.7,9.3-10.4,9.8-10.4,9.8s-27.7,18-18.1,40.3c0,0,13.7-3.5,11.2,8.5s-39.3,14.5-41.3,30.1c0,0,3.1,22-5,28.6
			c0,0-1.9,22.1-11.5,23.6s7.1,10,8.5,11.3c1.4,1.4,8.5,11.3,4.1,22s-22.4,30.3-26.1,33.1c-3.6,2.8-16.5,29.7-26.1,30.3
			s-10.9,35.6,7.4,54.6c18.3,19,17.7,39.7,17.8,46.1s-4.2,24-14.9,12.7c-10.8-11.3-11.6-3.5-14.9-11.7c-3.4-8.2-7.4-2.6-17.4-24
			s-15.6-23.2-20.8-32.3c0,0-12.5,11.3-15.7,7.2c-3.1-4.1-6.9-7.2-11.4-7.2c-4.6,0.1-9.3-6.3-16.6-1.5c-7.3,4.7-22,3.6-21.9,7.7
			s7.2,16-2.4,17.5c-9.6,1.5-17,0.3-20.7,0.8s-12-5.3-17.1-5.7s-13.7,2.5-18.9-0.6c-5.1-3.1-19.7,2.2-21.1,3.6s-31.4,16.2-35.8,26.4
			c-4.4,10.2,1.3,20.7,0.9,24.8c-0.4,4.1-7.6,13.3-24.3,3.3c-16.7-10-16-22.8-17-26.5s-18.5-33.7-22.2-35.5s-9.1,2.9-13.8,1.6
			c0,0-2.1,10.6-7.6,10.2s-20.8-5.6-21.8-9.7s-4.4-15.1-8.1-18.2c-3.7-3.2-9.9-12.2-15-15.8c-5.1-3.6-16.2-3.8-20.3-2.4
			c-4.1,1.5-30.7,4.2-43.7-0.6c-13-4.8-53.4-28.9-55.7-31.2c-2.3-2.3-17.5-0.1-21.6-2.8c-4.2-2.7,0.7-12.4-5.8-16
			s-25.2-23.9-31.2-23.8s-1.1-9.6-4.4-15.5s-8.1-14.1-8.2-21.5s-1.3-19.3-3.2-25.2s-9.4-9.5-7.7-19.2s-2.3-17.4-0.7-24.3
			c1.5-6.9,8.2-23.1,8-29.1s2.9-15.2,5.6-20.8s18.6-64.7,18.6-64.7S84.9,106.6,96.7,102.2z"/>
		<rect x="119.7" y="279.8" class="st10" width="552.6" height="39.6"/>
		<text transform="matrix(1 0 0 1 323.933 310.4279)" class="st3 st11 st13">Zoom in  </text>
	</g>
	<g id="yellow">
		<path class="st8" d="M96.7,102.2c0,0,6.6,9.5,13.9,8.5s-0.2-11.9,3.9-12s139.3,29.2,149.4,28.6c10.1-0.6,130.3,12.4,142.6,4.8
			c12.3-7.6,13.5,10.8,22.7,10.6s12.9-0.2,22.1,1.9s23.4-0.9,28.8-9.2c5.4-8.4,29.3-5.4,32.8,8.9c0,0,12.2-11.1,22.9,20.4
			c0,0,21.3,7,32.2,2.6c11-4.3,16.2,8.9,17.7,10.7c1.4,1.8,7.4,2.2,5.7,7.7s-2.6,8.3-6.7,8.4c-4.1,0.1-16.1-2.9-15.1,3
			c1,6,3.9,15.1,2.6,17.9c-1.3,2.8,12.5,7.1,14.7-0.3c2.2-7.4,6.1-17.6,16.6-21.4c10.5-3.9,27-6.5,36.3-25c0,0,21.4-12.8,30.6-13.4
			s15.8-14.1,15.3-16.4s-6.8-21.9-0.4-24.3c6.4-2.4,15-9.9,21.5-3.1c6.6,6.8,10.5,22.8,10.5,22.8s20.3,6.1,13.6,15.4
			c-6.7,9.3-10.4,9.8-10.4,9.8s-27.7,18-18.1,40.3c0,0,13.7-3.5,11.2,8.5s-39.3,14.5-41.3,30.1c0,0,3.1,22-5,28.6
			c0,0-1.9,22.1-11.5,23.6s7.1,10,8.5,11.3c1.4,1.4,8.5,11.3,4.1,22s-22.4,30.3-26.1,33.1c-3.6,2.8-16.5,29.7-26.1,30.3
			s-10.9,35.6,7.4,54.6c18.3,19,17.7,39.7,17.8,46.1s-4.2,24-14.9,12.7c-10.8-11.3-11.6-3.5-14.9-11.7c-3.4-8.2-7.4-2.6-17.4-24
			s-15.6-23.2-20.8-32.3c0,0-12.5,11.3-15.7,7.2c-3.1-4.1-6.9-7.2-11.4-7.2c-4.6,0.1-9.3-6.3-16.6-1.5c-7.3,4.7-22,3.6-21.9,7.7
			s7.2,16-2.4,17.5c-9.6,1.5-17,0.3-20.7,0.8s-12-5.3-17.1-5.7s-13.7,2.5-18.9-0.6c-5.1-3.1-19.7,2.2-21.1,3.6s-31.4,16.2-35.8,26.4
			c-4.4,10.2,1.3,20.7,0.9,24.8c-0.4,4.1-7.6,13.3-24.3,3.3c-16.7-10-16-22.8-17-26.5s-18.5-33.7-22.2-35.5s-9.1,2.9-13.8,1.6
			c0,0-2.1,10.6-7.6,10.2s-20.8-5.6-21.8-9.7s-4.4-15.1-8.1-18.2c-3.7-3.2-9.9-12.2-15-15.8c-5.1-3.6-16.2-3.8-20.3-2.4
			c-4.1,1.5-30.7,4.2-43.7-0.6c-13-4.8-53.4-28.9-55.7-31.2c-2.3-2.3-17.5-0.1-21.6-2.8c-4.2-2.7,0.7-12.4-5.8-16
			s-25.2-23.9-31.2-23.8s-1.1-9.6-4.4-15.5s-8.1-14.1-8.2-21.5s-1.3-19.3-3.2-25.2s-9.4-9.5-7.7-19.2s-2.3-17.4-0.7-24.3
			c1.5-6.9,8.2-23.1,8-29.1s2.9-15.2,5.6-20.8s18.6-64.7,18.6-64.7S84.9,106.6,96.7,102.2z"/>
	</g>
	<g id="pinkmurica">
		<path class="st14" d="M115.6,117.5c0,0,6.6,9.5,13.9,8.5s-0.2-11.9,3.9-12c4.1-0.1,139.3,29.2,149.4,28.6
			c10.1-0.6,130.3,12.4,142.6,4.8c12.3-7.6,13.5,10.8,22.7,10.6s12.9-0.2,22.1,1.9s23.4-0.9,28.8-9.2c5.4-8.4,29.3-5.4,32.8,8.9
			c0,0,12.2-11.1,22.9,20.4c0,0,21.3,7,32.2,2.6c11-4.3,16.2,8.9,17.7,10.7c1.4,1.8,7.4,2.2,5.7,7.7s-2.6,8.3-6.7,8.4
			c-4.1,0.1-16.1-2.9-15.1,3c1,6,3.9,15.1,2.6,17.9s12.5,7.1,14.7-0.3c2.2-7.4,6.1-17.6,16.6-21.4s27-6.5,36.3-25
			c0,0,21.4-12.8,30.6-13.4c9.2-0.6,15.8-14.1,15.3-16.4c-0.5-2.3-6.8-21.9-0.4-24.3c6.4-2.4,15-9.9,21.5-3.1
			c6.6,6.8,10.5,22.8,10.5,22.8s20.3,6.1,13.6,15.4c-6.7,9.3-10.4,9.8-10.4,9.8s-27.7,18-18.1,40.3c0,0,13.7-3.5,11.2,8.5
			s-39.3,14.5-41.3,30.1c0,0,3.1,22-5,28.6c0,0-1.9,22.1-11.5,23.6s7.1,10,8.5,11.3s8.5,11.3,4.1,22s-22.4,30.3-26.1,33.1
			c-3.6,2.8-16.5,29.7-26.1,30.3c-9.6,0.6-10.9,35.6,7.4,54.6s17.7,39.7,17.8,46.1s-4.2,24-14.9,12.7c-10.8-11.3-11.6-3.5-14.9-11.7
			c-3.4-8.2-7.4-2.6-17.4-24s-15.6-23.2-20.8-32.3c0,0-12.5,11.3-15.7,7.2c-3.1-4.1-6.9-7.2-11.4-7.2c-4.6,0.1-9.3-6.3-16.6-1.5
			c-7.3,4.7-22,3.6-21.9,7.7s7.2,16-2.4,17.5c-9.6,1.5-17,0.3-20.7,0.8s-12-5.3-17.1-5.7s-13.7,2.5-18.9-0.6
			c-5.1-3.1-19.7,2.2-21.1,3.6s-31.4,16.2-35.8,26.4s1.3,20.7,0.9,24.8c-0.4,4.1-7.6,13.3-24.3,3.3c-16.7-10-16-22.8-17-26.5
			s-18.5-33.7-22.2-35.5s-9.1,2.9-13.8,1.6c0,0-2.1,10.6-7.6,10.2s-20.8-5.6-21.8-9.7s-4.4-15.1-8.1-18.2c-3.7-3.2-9.9-12.2-15-15.8
			c-5.1-3.6-16.2-3.8-20.3-2.4c-4.1,1.5-30.7,4.2-43.7-0.6s-53.4-28.9-55.7-31.2c-2.3-2.3-17.5-0.1-21.6-2.8s0.7-12.4-5.8-16
			s-25.2-23.9-31.2-23.8s-1.1-9.6-4.4-15.5s-8.1-14.1-8.2-21.5s-1.3-19.3-3.2-25.2c-1.9-5.9-9.4-9.5-7.7-19.2
			c1.7-9.7-2.3-17.4-0.7-24.3c1.5-6.9,8.2-23.1,8-29.1s2.9-15.2,5.6-20.8s18.6-64.7,18.6-64.7S103.8,121.8,115.6,117.5z"/>
		<path class="st15" d="M105.6,111.3c0,0,6.6,9.5,13.9,8.5s-0.2-11.9,3.9-12s139.3,29.2,149.4,28.6c10.1-0.6,130.3,12.4,142.6,4.8
			c12.3-7.6,13.5,10.8,22.7,10.6s12.9-0.2,22.1,1.9s23.4-0.9,28.8-9.2c5.4-8.4,29.3-5.4,32.8,8.9c0,0,12.2-11.1,22.9,20.4
			c0,0,21.3,7,32.2,2.6c11-4.3,16.2,8.9,17.7,10.7c1.4,1.8,7.4,2.2,5.7,7.7s-2.6,8.3-6.7,8.4c-4.1,0.1-16.1-2.9-15.1,3
			c1,6,3.9,15.1,2.6,17.9s12.5,7.1,14.7-0.3c2.2-7.4,6.1-17.6,16.6-21.4s27-6.5,36.3-25c0,0,21.4-12.8,30.6-13.4
			c9.2-0.6,15.8-14.1,15.3-16.4c-0.5-2.3-6.8-21.9-0.4-24.3c6.4-2.4,15-9.9,21.5-3.1c6.6,6.8,10.5,22.8,10.5,22.8
			s20.3,6.1,13.6,15.4c-6.7,9.3-10.4,9.8-10.4,9.8s-27.7,18-18.1,40.3c0,0,13.7-3.5,11.2,8.5s-39.3,14.5-41.3,30.1
			c0,0,3.1,22-5,28.6c0,0-1.9,22.1-11.5,23.6s7.1,10,8.5,11.3s8.5,11.3,4.1,22s-22.4,30.3-26.1,33.1c-3.6,2.8-16.5,29.7-26.1,30.3
			c-9.6,0.6-10.9,35.6,7.4,54.6s17.7,39.7,17.8,46.1s-4.2,24-14.9,12.7c-10.8-11.3-11.6-3.5-14.9-11.7c-3.4-8.2-7.4-2.6-17.4-24
			s-15.6-23.2-20.8-32.3c0,0-12.5,11.3-15.7,7.2c-3.1-4.1-6.9-7.2-11.4-7.2c-4.6,0.1-9.3-6.3-16.6-1.5c-7.3,4.7-22,3.6-21.9,7.7
			s7.2,16-2.4,17.5c-9.6,1.5-17,0.3-20.7,0.8s-12-5.3-17.1-5.7s-13.7,2.5-18.9-0.6c-5.1-3.1-19.7,2.2-21.1,3.6s-31.4,16.2-35.8,26.4
			c-4.4,10.2,1.3,20.7,0.9,24.8c-0.4,4.1-7.6,13.3-24.3,3.3c-16.7-10-16-22.8-17-26.5s-18.5-33.7-22.2-35.5s-9.1,2.9-13.8,1.6
			c0,0-2.1,10.6-7.6,10.2s-20.8-5.6-21.8-9.7s-4.4-15.1-8.1-18.2s-9.9-12.2-15-15.8c-5.1-3.6-16.2-3.8-20.3-2.4
			c-4.1,1.5-30.7,4.2-43.7-0.6s-53.4-28.9-55.7-31.2c-2.3-2.3-17.5-0.1-21.6-2.8c-4.2-2.7,0.7-12.4-5.8-16S99.5,346.9,93.5,347
			s-1.1-9.6-4.4-15.5S81,317.4,80.9,310s-1.3-19.3-3.2-25.2s-9.4-9.5-7.7-19.2c1.7-9.7-2.3-17.4-0.7-24.3c1.5-6.9,8.2-23.1,8-29.1
			s2.9-15.2,5.6-20.8s18.6-64.7,18.6-64.7S93.8,115.6,105.6,111.3z"/>
	</g>
	<g id="Layer_10" class="st3">
		<path class="st16" d="M23.7,408.3c0,0,16.8-33.6,0-63.9c37-23.5,37-50.4,37-70.6s13.4-50.4,13.4-50.4s124.4,6.7,134.5,0
			s10.1-6.7,10.1-6.7l20.2-16.8h107.6l60.5-20.2c0,0,302.6-16.8,326.1-23.5s40.3,0,40.3,0s-6.7,57.2-37,67.2
			c-30.3,10.1-3.4-6.7-30.3,10.1s-33.6,40.7-47.1,47.3c-13.4,6.5-53.8,6.5-60.5,30.1s-30.3,20.2-30.3,37s0,16.8,0,16.8
			S64,418.4,23.7,408.3z"/>
	</g>
	<rect x="232.9" y="242.6" class="st10" width="297.3" height="128.7"/>
	<text transform="matrix(1 0 0 1 262.9636 320.9675)" class="st1 st11 st17 st18">Enter</text>
</g>
<g id="Layer_3">
</g>
<g id="Layer_4" class="st0">
	<rect x="87.6" y="171.2" class="st19" width="607.1" height="415.4"/>
</g>
<g id="Layer_2" class="st0">
	<polygon class="st9" points="116.3,190.4 119.2,196.3 125.7,197.2 121,201.8 122.1,208.2 116.3,205.2 110.6,208.2 111.7,201.8 
		107,197.2 113.4,196.3 	"/>
	<polygon class="st9" points="140.5,213.2 143.4,219.1 149.8,220 145.2,224.6 146.3,231 140.5,228 134.7,231 135.8,224.6 131.1,220 
		137.6,219.1 	"/>
	<polygon class="st9" points="193,213.2 195.8,219.1 202.3,220 197.6,224.6 198.7,231 193,228 187.2,231 188.3,224.6 183.6,220 
		190.1,219.1 	"/>
	<polygon class="st9" points="244.2,213.2 247.1,219.1 253.5,220 248.8,224.6 249.9,231 244.2,228 238.4,231 239.5,224.6 234.8,220 
		241.3,219.1 	"/>
	<polygon class="st9" points="294.8,213.2 297.7,219.1 304.2,220 299.5,224.6 300.6,231 294.8,228 289,231 290.1,224.6 285.5,220 
		291.9,219.1 	"/>
	<polygon class="st9" points="346.1,213.2 348.9,219.1 355.4,220 350.7,224.6 351.8,231 346.1,228 340.3,231 341.4,224.6 336.7,220 
		343.2,219.1 	"/>
	<polygon class="st9" points="141.4,255.8 144.3,261.7 150.7,262.6 146.1,267.2 147.2,273.6 141.4,270.6 135.6,273.6 136.7,267.2 
		132,262.6 138.5,261.7 	"/>
	<polygon class="st9" points="193.8,255.8 196.7,261.7 203.2,262.6 198.5,267.2 199.6,273.6 193.8,270.6 188.1,273.6 189.2,267.2 
		184.5,262.6 191,261.7 	"/>
	<polygon class="st9" points="245.1,255.8 247.9,261.7 254.4,262.6 249.7,267.2 250.8,273.6 245.1,270.6 239.3,273.6 240.4,267.2 
		235.7,262.6 242.2,261.7 	"/>
	<polygon class="st9" points="295.7,255.8 298.6,261.7 305,262.6 300.4,267.2 301.5,273.6 295.7,270.6 289.9,273.6 291,267.2 
		286.4,262.6 292.8,261.7 	"/>
	<polygon class="st9" points="347,255.8 349.8,261.7 356.3,262.6 351.6,267.2 352.7,273.6 347,270.6 341.2,273.6 342.3,267.2 
		337.6,262.6 344.1,261.7 	"/>
	<polygon class="st9" points="141.4,299.7 144.3,305.6 150.7,306.5 146.1,311.1 147.2,317.5 141.4,314.5 135.6,317.5 136.7,311.1 
		132,306.5 138.5,305.6 	"/>
	<polygon class="st9" points="193.8,299.7 196.7,305.6 203.2,306.5 198.5,311.1 199.6,317.5 193.8,314.5 188.1,317.5 189.2,311.1 
		184.5,306.5 191,305.6 	"/>
	<polygon class="st9" points="245.1,299.7 247.9,305.6 254.4,306.5 249.7,311.1 250.8,317.5 245.1,314.5 239.3,317.5 240.4,311.1 
		235.7,306.5 242.2,305.6 	"/>
	<polygon class="st9" points="295.7,299.7 298.6,305.6 305,306.5 300.4,311.1 301.5,317.5 295.7,314.5 289.9,317.5 291,311.1 
		286.4,306.5 292.8,305.6 	"/>
	<polygon class="st9" points="347,299.7 349.8,305.6 356.3,306.5 351.6,311.1 352.7,317.5 347,314.5 341.2,317.5 342.3,311.1 
		337.6,306.5 344.1,305.6 	"/>
	<polygon class="st9" points="141.4,343.6 144.3,349.5 150.7,350.4 146.1,355 147.2,361.4 141.4,358.4 135.6,361.4 136.7,355 
		132,350.4 138.5,349.5 	"/>
	<polygon class="st9" points="193.8,343.6 196.7,349.5 203.2,350.4 198.5,355 199.6,361.4 193.8,358.4 188.1,361.4 189.2,355 
		184.5,350.4 191,349.5 	"/>
	<polygon class="st9" points="245.1,343.6 247.9,349.5 254.4,350.4 249.7,355 250.8,361.4 245.1,358.4 239.3,361.4 240.4,355 
		235.7,350.4 242.2,349.5 	"/>
	<polygon class="st9" points="295.7,343.6 298.6,349.5 305,350.4 300.4,355 301.5,361.4 295.7,358.4 289.9,361.4 291,355 
		286.4,350.4 292.8,349.5 	"/>
	<polygon class="st9" points="347,343.6 349.8,349.5 356.3,350.4 351.6,355 352.7,361.4 347,358.4 341.2,361.4 342.3,355 
		337.6,350.4 344.1,349.5 	"/>
	<polygon class="st9" points="167.6,190.4 170.5,196.3 176.9,197.2 172.3,201.8 173.4,208.2 167.6,205.2 161.8,208.2 162.9,201.8 
		158.2,197.2 164.7,196.3 	"/>
	<polygon class="st9" points="217.6,190.4 220.5,196.3 227,197.2 222.3,201.8 223.4,208.2 217.6,205.2 211.9,208.2 213,201.8 
		208.3,197.2 214.7,196.3 	"/>
	<polygon class="st9" points="270.1,190.4 273,196.3 279.4,197.2 274.8,201.8 275.9,208.2 270.1,205.2 264.3,208.2 265.4,201.8 
		260.7,197.2 267.2,196.3 	"/>
	<polygon class="st9" points="320.7,190.4 323.6,196.3 330.1,197.2 325.4,201.8 326.5,208.2 320.7,205.2 315,208.2 316.1,201.8 
		311.4,197.2 317.9,196.3 	"/>
	<polygon class="st9" points="372,192.8 374.9,198.7 381.3,199.6 376.7,204.2 377.8,210.6 372,207.6 366.2,210.6 367.3,204.2 
		362.6,199.6 369.1,198.7 	"/>
	<polygon class="st9" points="116.3,235.2 119.2,241.1 125.7,242 121,246.6 122.1,253 116.3,250 110.6,253 111.7,246.6 107,242 
		113.4,241.1 	"/>
	<polygon class="st9" points="167.6,235.2 170.5,241.1 176.9,242 172.3,246.6 173.4,253 167.6,250 161.8,253 162.9,246.6 158.2,242 
		164.7,241.1 	"/>
	<polygon class="st9" points="217.6,235.2 220.5,241.1 227,242 222.3,246.6 223.4,253 217.6,250 211.9,253 213,246.6 208.3,242 
		214.7,241.1 	"/>
	<polygon class="st9" points="270.1,235.2 273,241.1 279.4,242 274.8,246.6 275.9,253 270.1,250 264.3,253 265.4,246.6 260.7,242 
		267.2,241.1 	"/>
	<polygon class="st9" points="320.7,235.2 323.6,241.1 330.1,242 325.4,246.6 326.5,253 320.7,250 315,253 316.1,246.6 311.4,242 
		317.9,241.1 	"/>
	<polygon class="st9" points="372,237.6 374.9,243.5 381.3,244.4 376.7,249 377.8,255.4 372,252.4 366.2,255.4 367.3,249 
		362.6,244.4 369.1,243.5 	"/>
	<polygon class="st9" points="116.3,276.5 119.2,282.3 125.7,283.3 121,287.8 122.1,294.2 116.3,291.2 110.6,294.2 111.7,287.8 
		107,283.3 113.4,282.3 	"/>
	<polygon class="st9" points="167.6,276.5 170.5,282.3 176.9,283.3 172.3,287.8 173.4,294.2 167.6,291.2 161.8,294.2 162.9,287.8 
		158.2,283.3 164.7,282.3 	"/>
	<polygon class="st9" points="217.6,276.5 220.5,282.3 227,283.3 222.3,287.8 223.4,294.2 217.6,291.2 211.9,294.2 213,287.8 
		208.3,283.3 214.7,282.3 	"/>
	<polygon class="st9" points="270.1,276.5 273,282.3 279.4,283.3 274.8,287.8 275.9,294.2 270.1,291.2 264.3,294.2 265.4,287.8 
		260.7,283.3 267.2,282.3 	"/>
	<polygon class="st9" points="320.7,276.5 323.6,282.3 330.1,283.3 325.4,287.8 326.5,294.2 320.7,291.2 315,294.2 316.1,287.8 
		311.4,283.3 317.9,282.3 	"/>
	<polygon class="st9" points="372,278.9 374.9,284.7 381.3,285.7 376.7,290.2 377.8,296.7 372,293.6 366.2,296.7 367.3,290.2 
		362.6,285.7 369.1,284.7 	"/>
	<polygon class="st9" points="116.3,323 119.2,328.9 125.7,329.8 121,334.4 122.1,340.8 116.3,337.8 110.6,340.8 111.7,334.4 
		107,329.8 113.4,328.9 	"/>
	<polygon class="st9" points="167.6,323 170.5,328.9 176.9,329.8 172.3,334.4 173.4,340.8 167.6,337.8 161.8,340.8 162.9,334.4 
		158.2,329.8 164.7,328.9 	"/>
	<polygon class="st9" points="217.6,323 220.5,328.9 227,329.8 222.3,334.4 223.4,340.8 217.6,337.8 211.9,340.8 213,334.4 
		208.3,329.8 214.7,328.9 	"/>
	<polygon class="st9" points="270.1,323 273,328.9 279.4,329.8 274.8,334.4 275.9,340.8 270.1,337.8 264.3,340.8 265.4,334.4 
		260.7,329.8 267.2,328.9 	"/>
	<polygon class="st9" points="320.7,323 323.6,328.9 330.1,329.8 325.4,334.4 326.5,340.8 320.7,337.8 315,340.8 316.1,334.4 
		311.4,329.8 317.9,328.9 	"/>
	<polygon class="st9" points="372,325.4 374.9,331.3 381.3,332.2 376.7,336.8 377.8,343.2 372,340.2 366.2,343.2 367.3,336.8 
		362.6,332.2 369.1,331.3 	"/>
	<polygon class="st9" points="116.4,364.9 119.3,370.8 125.8,371.7 121.1,376.3 122.2,382.7 116.4,379.7 110.7,382.7 111.8,376.3 
		107.1,371.7 113.5,370.8 	"/>
	<polygon class="st9" points="167.7,364.9 170.6,370.8 177,371.7 172.4,376.3 173.5,382.7 167.7,379.7 161.9,382.7 163,376.3 
		158.3,371.7 164.8,370.8 	"/>
	<polygon class="st9" points="217.7,364.9 220.6,370.8 227.1,371.7 222.4,376.3 223.5,382.7 217.7,379.7 212,382.7 213.1,376.3 
		208.4,371.7 214.8,370.8 	"/>
	<polygon class="st9" points="270.2,364.9 273.1,370.8 279.5,371.7 274.9,376.3 276,382.7 270.2,379.7 264.4,382.7 265.5,376.3 
		260.8,371.7 267.3,370.8 	"/>
	<polygon class="st9" points="320.8,364.9 323.7,370.8 330.2,371.7 325.5,376.3 326.6,382.7 320.8,379.7 315.1,382.7 316.2,376.3 
		311.5,371.7 318,370.8 	"/>
	<polygon class="st9" points="372.1,367.4 375,373.2 381.4,374.1 376.7,378.7 377.9,385.1 372.1,382.1 366.3,385.1 367.4,378.7 
		362.7,374.1 369.2,373.2 	"/>
</g>
<g id="Layer_5">
	<polygon class="st20" points="129.7,282.3 162.6,349 236.2,359.7 182.9,411.6 195.5,484.9 129.7,450.3 63.8,484.9 76.4,411.6 
		23.1,359.7 96.7,349 	"/>
	<polygon class="st20" points="186.2,282.3 219.2,349 292.8,359.7 239.5,411.6 252.1,484.9 186.2,450.3 120.4,484.9 133,411.6 
		79.7,359.7 153.3,349 	"/>
	<polygon class="st20" points="236.2,282.3 269.1,349 342.7,359.7 289.5,411.6 302,484.9 236.2,450.3 170.4,484.9 182.9,411.6 
		129.7,359.7 203.3,349 	"/>
	<polygon class="st20" points="292.8,282.3 325.7,349 399.3,359.7 346.1,411.6 358.6,484.9 292.8,450.3 226.9,484.9 239.5,411.6 
		186.2,359.7 259.9,349 	"/>
	<polygon class="st20" points="342.7,282.3 375.7,349 449.3,359.7 396,411.6 408.6,484.9 342.7,450.3 276.9,484.9 289.5,411.6 
		236.2,359.7 309.8,349 	"/>
	<polygon class="st20" points="399.3,282.3 432.2,349 505.9,359.7 452.6,411.6 465.2,484.9 399.3,450.3 333.5,484.9 346.1,411.6 
		292.8,359.7 366.4,349 	"/>
	<polygon class="st20" points="449.3,282.3 482.2,349 555.8,359.7 502.5,411.6 515.1,484.9 449.3,450.3 383.4,484.9 396,411.6 
		342.7,359.7 416.3,349 	"/>
	<polygon class="st20" points="505.9,282.3 538.8,349 612.4,359.7 559.1,411.6 571.7,484.9 505.9,450.3 440,484.9 452.6,411.6 
		399.3,359.7 472.9,349 	"/>
	<polygon class="st20" points="555.8,282.3 588.7,349 662.3,359.7 609.1,411.6 621.6,484.9 555.8,450.3 490,484.9 502.5,411.6 
		449.3,359.7 522.9,349 	"/>
	<polygon class="st20" points="605.8,282.3 638.7,349 712.3,359.7 659,411.6 671.6,484.9 605.8,450.3 539.9,484.9 552.5,411.6 
		499.2,359.7 572.8,349 	"/>
	<polygon class="st20" points="662.3,282.3 695.3,349 768.9,359.7 715.6,411.6 728.2,484.9 662.3,450.3 596.5,484.9 609.1,411.6 
		555.8,359.7 629.4,349 	"/>
</g>
<g id="Layer_6" class="st0">
	<polygon class="st21" points="385.8,81.2 409.6,129.4 462.8,137.2 424.3,174.7 433.3,227.7 385.8,202.7 338.2,227.7 347.3,174.7 
		308.8,137.2 362,129.4 	"/>
	<polygon class="st22" points="385.8,495.9 409.6,447.7 462.8,440 424.3,402.4 433.3,349.5 385.8,374.5 338.2,349.5 347.3,402.4 
		308.8,440 362,447.7 	"/>
	<polygon class="st23" points="178.4,288.6 226.6,264.8 234.4,211.6 271.9,250.1 324.9,241 299.9,288.6 324.9,336.1 271.9,327.1 
		234.4,365.6 226.6,312.4 	"/>
	<polygon class="st24" points="593.1,288.6 544.9,264.8 537.2,211.6 499.6,250.1 446.7,241 471.7,288.6 446.7,336.1 499.6,327.1 
		537.2,365.6 544.9,312.4 	"/>
</g>
<g id="Layer_7">
</g>
</svg>
