<svg id="pinkmurica" xmlns="http://www.w3.org/2000/svg" viewBox="0 0 679.44 421.66"><defs><style>.cls-1{fill:#ef95bf;stroke:#010101;stroke-miterlimit:10;stroke-width:7px;}</style></defs><title>pink</title><path class="cls-1" d="M115.65,117.47s6.6,9.53,13.94,8.48-.21-11.95,3.92-12,139.31,29.24,149.41,28.6,130.28,12.4,142.55,4.82S439,158.15,448.17,158s12.86-.23,22.09,1.91,23.42-.88,28.79-9.24,29.32-5.4,32.79,8.93c0,0,12.21-11.11,22.88,20.42,0,0,21.26,7,32.22,2.65s16.24,8.9,17.65,10.72,7.39,2.17,5.65,7.71-2.61,8.32-6.74,8.39-16.14-2.93-15.11,3,3.94,15.1,2.61,17.88,12.53,7.13,14.7-.26,6.12-17.57,16.62-21.43,27-6.45,36.32-25c0,0,21.37-12.79,30.55-13.41S705,156.19,704.54,153.9s-6.78-21.94-.41-24.35,15-9.92,21.52-3.14,10.51,22.79,10.51,22.79,20.33,6.07,13.6,15.38-10.4,9.84-10.4,9.84-27.72,18-18.13,40.3c0,0,13.73-3.46,11.18,8.53s-39.27,14.48-41.29,30.14c0,0,3.15,22-5,28.58,0,0-1.91,22.09-11.53,23.64s7.07,10,8.47,11.34,8.47,11.34,4.07,22S664.7,369.23,661.07,372,644.6,401.75,635,402.38s-10.86,35.58,7.4,54.56,17.71,39.67,17.82,46.1-4.17,24-14.94,12.67-11.55-3.47-14.91-11.68-7.4-2.63-17.43-24-15.58-23.16-20.79-32.26c0,0-12.55,11.25-15.67,7.17s-6.85-7.23-11.45-7.15-9.3-6.27-16.57-1.54-22,3.61-21.92,7.74,7.18,16-2.45,17.51-17,.3-20.67.83-12-5.3-17.1-5.67-13.74,2.54-18.85-.58-19.72,2.19-21.08,3.59S414.92,485.79,410.51,496s1.29,20.66.9,24.8-7.58,13.29-24.3,3.33-16-22.84-17-26.5-18.52-33.68-22.23-35.45-9.14,2.92-13.76,1.62c0,0-2.11,10.61-7.63,10.25s-20.78-5.61-21.77-9.72-4.4-15.09-8.14-18.24-9.87-12.23-15-15.82-16.15-3.85-20.26-2.4-30.72,4.22-43.67-.6-53.36-28.93-55.7-31.18-17.47-.15-21.65-2.83.7-12.42-5.8-16-25.24-23.91-31.21-23.8-1.09-9.63-4.41-15.55-8.06-14.1-8.19-21.45-1.26-19.28-3.2-25.22-9.36-9.48-7.69-19.17-2.27-17.42-.72-24.34,8.15-23.12,8-29.1,2.95-15.22,5.61-20.78,18.61-64.67,18.61-64.67S103.77,121.82,115.65,117.47Z" transform="translate(-75.19 -110.44)"/></svg>